<?xml version="1.0" encoding="UTF-8"?>
<svg id="Capa_1" data-name="Capa 1" xmlns="http://www.w3.org/2000/svg" viewBox="0 0 841.89 512.44">
  <defs>
    <style>
      .cls-1 {
        fill: #00476b;
      }
    </style>
  </defs>
  <path class="cls-1" d="m368.31,179.82l-27.06,28.82c-7.33,7.8-6.94,20.07.87,27.4,3.74,3.51,8.51,5.25,13.26,5.25,5.17,0,10.32-2.05,14.13-6.12l39.73-42.32c7.09-7.55,6.99-19.35-.24-26.78l-42.64-43.84c-7.46-7.67-19.73-7.84-27.41-.38-7.67,7.46-7.84,19.73-.38,27.41l29.72,30.56Z"/>
  <path class="cls-1" d="m501.19,192.06c.14-.16.25-.32.38-.48.27-.33.55-.66.79-1,.14-.19.26-.39.39-.59.22-.34.45-.67.65-1.02.14-.24.26-.49.39-.74.16-.31.33-.62.47-.94.13-.29.24-.6.36-.9.11-.28.23-.56.33-.84.11-.33.2-.66.29-1,.07-.27.16-.53.22-.8.08-.34.14-.68.2-1.03.05-.27.11-.54.14-.81.04-.33.07-.66.1-.99.02-.29.06-.58.07-.87.01-.31,0-.62,0-.92,0-.32,0-.63-.02-.95-.02-.28-.05-.56-.08-.84-.03-.34-.06-.68-.12-1.02-.04-.26-.1-.52-.15-.78-.07-.35-.13-.7-.22-1.05-.07-.26-.15-.51-.23-.76-.1-.34-.2-.69-.32-1.02-.1-.27-.22-.54-.33-.81-.13-.31-.25-.62-.39-.92-.14-.3-.31-.6-.47-.9-.14-.26-.27-.52-.42-.77-.2-.33-.43-.65-.65-.98-.14-.21-.27-.42-.42-.62-.24-.33-.52-.64-.78-.95-.14-.17-.27-.34-.42-.51l-83.01-91.34c-7.2-7.92-19.46-8.51-27.38-1.31-7.92,7.2-8.51,19.46-1.31,27.38l71.37,78.53-31.6,36.03c-7.06,8.05-6.26,20.29,1.79,27.35,3.68,3.23,8.24,4.81,12.77,4.81,5.39,0,10.75-2.23,14.58-6.6l42.87-48.87s0-.01.01-.02l.13-.15Z"/>
  <path class="cls-1" d="m147.26,334.29l-11.01-3.07c-7.57-2.17-7.94-5.77-7.94-7.57,0-4.15,3.61-7.04,9.38-7.04,3.97,0,7.58,1.44,11.18,5.23,3.43,3.79,7.04,5.23,10.82,5.23,5.77,0,10.1-3.43,10.1-9.92,0-4.33-2.16-7.04-3.24-8.47-5.95-8.3-17.86-12.81-29.76-12.81-16.96,0-34.27,9.02-34.27,27.96,0,12.99,7.76,22.91,26.15,28.14l9.38,2.89c8.48,2.52,9.2,6.49,9.2,8.3,0,3.61-3.43,7.21-11.37,7.21-5.05,0-10.1-1.26-15.51-7.4-2.35-2.7-5.41-5.95-10.64-5.95-7.4,0-10.1,5.59-10.1,9.92,0,6.14,4.51,11.37,5.59,12.44,5.05,5.24,14.07,12.27,30.66,12.27,18.76,0,37.52-9.56,37.52-29.94,0-16.41-12.44-23.27-26.15-27.42Z"/>
  <path class="cls-1" d="m472.27,296.18c-7.04,0-13.17,5.77-13.17,12.99v38.78c0,14.97-7.4,21.47-17.31,21.47-.22,0-.41-.02-.62-.03-9.44-.4-16.4-6.89-16.4-21.39v-38.78c0-7.21-6.14-12.99-13.17-12.99s-13.17,5.77-13.17,12.99v38.78c0,31.38,21.46,43.81,42.74,43.81s44.26-12.48,44.26-43.86v-38.78c0-7.21-5.95-12.99-13.17-12.99Z"/>
  <path class="cls-1" d="m514.42,261.96c-7.21,0-13.17,5.95-13.17,13.17v103.54c0,7.21,5.95,12.98,13.17,12.98s13.17-5.77,13.17-12.98v-103.54c0-7.22-5.95-13.17-13.17-13.17Z"/>
  <path class="cls-1" d="m263.35,296.42c-7.22,0-13.17,5.95-13.17,12.99v.72c-3.07-7.39-12.62-14.25-25.07-14.25-19.66,0-43.47,15.88-43.47,47.98s23.63,48.16,43.47,48.16c14.25,0,22.91-7.94,25.07-12.98,0,7.03,5.95,12.8,13.17,12.8s13.35-5.77,13.35-12.99v-69.44c0-7.04-6.31-12.99-13.35-12.99Zm-23.87,70.65c-.3.16-.6.31-.9.46-.28.13-.55.24-.84.36-.37.15-.74.3-1.11.43-.44.16-.88.3-1.33.43-.01,0-.03,0-.04.01-2.07.6-4.25.95-6.51.95-13.49,0-24.43-11.51-24.43-25.72s10.94-25.72,24.43-25.72c1.36,0,2.69.15,4,.37,3.12.44,6.41,1.64,9.35,3.82,6.67,4.59,11.08,12.51,11.08,21.52,0,10.15-5.6,18.9-13.71,23.08Z"/>
  <path class="cls-1" d="m729.63,296.42c-7.22,0-13.17,5.95-13.17,12.99v.72c-3.07-7.39-12.62-14.25-25.07-14.25-19.66,0-43.47,15.88-43.47,47.98s23.63,48.16,43.47,48.16c14.25,0,22.91-7.94,25.07-12.98,0,7.03,5.95,12.8,13.17,12.8s13.35-5.77,13.35-12.99v-69.44c0-7.04-6.31-12.99-13.35-12.99Zm-35.21,73.28c-13.49,0-24.43-11.51-24.43-25.72s10.94-25.72,24.43-25.72,24.43,11.51,24.43,25.72-10.94,25.72-24.43,25.72Z"/>
  <path class="cls-1" d="m368.49,296.09c-7.22,0-13.17,5.95-13.17,12.99v.72c-3.07-7.39-12.62-14.25-25.07-14.25-19.66,0-43.47,15.88-43.47,47.98s23.63,48.16,43.47,48.16c13.89,0,22.37-7.39,24.89-12.63v9.56c0,8.48-6.49,16.24-20.38,16.24-8.12,0-13.89-2.35-17.5-2.89-2.53-.72-3.97-.72-5.05-.72-5.59,0-10.28,4.33-10.28,10.46,0,4.69,3.07,8.84,8.66,11.18,3.97,1.63,12.99,4.51,23.99,4.51,19.12,0,46.9-9.38,46.9-38.78v-7.21c.04-1.23.36-72.33.36-72.33,0-7.04-6.31-12.99-13.35-12.99Zm-36,73.61c-13.49,0-24.43-11.51-24.43-25.72s10.94-25.72,24.43-25.72,24.43,11.51,24.43,25.72-10.94,25.72-24.43,25.72Z"/>
  <path class="cls-1" d="m596.32,295.87c-12.45,0-22.01,6.86-25.08,14.25v-.72c0-7.04-5.95-12.99-13.17-12.99s-13.35,5.95-13.35,12.99v103.9c0,7.21,5.95,13.17,13.17,13.17s13.53-5.95,13.53-13.17v-33.92c2.53,5.24,11,12.63,24.89,12.63,19.84,0,43.47-15.33,43.47-48.16s-23.81-47.98-43.47-47.98Zm-3,73.83c-13.49,0-24.43-11.51-24.43-25.72s10.94-25.72,24.43-25.72,24.43,11.51,24.43,25.72-10.93,25.72-24.43,25.72Z"/>
</svg>