<?xml version="1.0" encoding="UTF-8"?>
<svg id="Capa_1" data-name="Capa 1" xmlns="http://www.w3.org/2000/svg" viewBox="0 0 265.73 512.44">
  <defs>
    <style>
      .cls-1 {
        fill: #fff;
      }
    </style>
  </defs>
  <path class="cls-1" d="m190.61,274.7c1.94,2.57,5.8,7.42,5.8,15.17,0,11.63-7.74,17.76-18.08,17.76-6.78,0-13.24-2.58-19.37-9.36-6.45-6.78-12.91-9.36-20.01-9.36-10.33,0-16.78,5.17-16.78,12.59,0,3.23.65,9.68,14.2,13.55l19.7,5.49c24.53,7.43,46.8,19.7,46.8,49.07,0,36.48-33.57,53.58-67.15,53.58-29.69,0-45.83-12.58-54.87-21.95-1.94-1.93-10.01-11.29-10.01-22.27,0-7.75,4.84-17.76,18.08-17.76,9.36,0,14.85,5.81,19.05,10.65,9.68,10.98,18.72,13.24,27.76,13.24,14.21,0,20.34-6.45,20.34-12.91,0-3.23-1.29-10.33-16.47-14.85l-16.78-5.17c-32.92-9.36-46.8-27.12-46.8-50.36,0-33.9,30.99-50.03,61.33-50.03,21.31,0,42.61,8.07,53.26,22.92Z"/>
  <g>
    <path class="cls-1" d="m99.16,220.69c-3.57,0-7.15-1.31-9.96-3.94-5.86-5.5-6.15-14.71-.65-20.57l20.32-21.65-22.32-22.95c-5.6-5.76-5.48-14.98.29-20.58,5.76-5.6,14.98-5.48,20.58.29l32.02,32.92c5.43,5.58,5.5,14.44.18,20.11l-29.84,31.79c-2.86,3.05-6.74,4.59-10.62,4.59Z"/>
    <g>
      <path class="cls-1" d="m197.72,188.68c-3.96,0-7.9-1.61-10.78-4.77l-62.34-68.6c-5.41-5.95-4.97-15.15.98-20.56,5.95-5.41,15.15-4.97,20.56.98l62.34,68.6c5.41,5.95,4.97,15.15-.98,20.56-2.79,2.53-6.29,3.78-9.79,3.78Z"/>
      <path class="cls-1" d="m165.41,225.51c-3.41,0-6.83-1.19-9.59-3.61-6.04-5.3-6.65-14.5-1.34-20.54l32.3-36.83c5.3-6.04,14.5-6.65,20.54-1.34,6.04,5.3,6.65,14.5,1.34,20.54l-32.3,36.83c-2.88,3.28-6.9,4.96-10.95,4.96Z"/>
    </g>
  </g>
</svg>