<?xml version="1.0" encoding="UTF-8"?>
<svg id="Capa_1" data-name="Capa 1" xmlns="http://www.w3.org/2000/svg" viewBox="0 0 841.89 512.44">
  <defs>
    <style>
      .cls-1 {
        fill: #fff;
      }

      .cls-2 {
        fill: #fdc53a;
      }

      .cls-3 {
        fill: #f1840d;
      }

      .cls-4 {
        fill: #61a032;
      }
    </style>
  </defs>
  <g>
    <path class="cls-3" d="m355.38,241.28c-4.76,0-9.52-1.74-13.26-5.25-7.8-7.33-8.19-19.59-.87-27.4l27.06-28.82-29.72-30.56c-7.46-7.67-7.29-19.94.38-27.41,7.67-7.46,19.94-7.29,27.41.38l42.64,43.84c7.22,7.43,7.33,19.22.24,26.78l-39.73,42.32c-3.81,4.06-8.97,6.12-14.13,6.12Z"/>
    <g>
      <path class="cls-2" d="m486.62,198.66c-5.27,0-10.52-2.14-14.35-6.35l-83.01-91.34c-7.2-7.92-6.61-20.18,1.31-27.38,7.92-7.2,20.18-6.61,27.38,1.31l83.01,91.34c7.2,7.92,6.61,20.18-1.31,27.38-3.71,3.37-8.38,5.04-13.03,5.04Z"/>
      <path class="cls-4" d="m443.6,247.7c-4.54,0-9.09-1.58-12.77-4.81-8.05-7.06-8.85-19.3-1.79-27.35l43.01-49.04c7.06-8.05,19.3-8.85,27.35-1.79,8.05,7.06,8.85,19.3,1.79,27.35l-43.01,49.04c-3.83,4.37-9.19,6.6-14.58,6.6Z"/>
    </g>
  </g>
  <g>
    <path class="cls-1" d="m166.56,308.68c1.08,1.44,3.24,4.15,3.24,8.47,0,6.5-4.33,9.92-10.1,9.92-3.79,0-7.4-1.44-10.82-5.23-3.6-3.79-7.21-5.23-11.18-5.23-5.77,0-9.38,2.89-9.38,7.04,0,1.8.36,5.41,7.94,7.57l11.01,3.07c13.71,4.15,26.15,11.01,26.15,27.42,0,20.38-18.76,29.94-37.52,29.94-16.59,0-25.61-7.03-30.66-12.27-1.08-1.08-5.59-6.31-5.59-12.44,0-4.33,2.7-9.92,10.1-9.92,5.23,0,8.3,3.25,10.64,5.95,5.41,6.14,10.46,7.4,15.51,7.4,7.94,0,11.37-3.6,11.37-7.21,0-1.8-.72-5.77-9.2-8.3l-9.38-2.89c-18.4-5.23-26.15-15.15-26.15-28.14,0-18.94,17.31-27.96,34.27-27.96,11.91,0,23.81,4.51,29.76,12.81Z"/>
    <path class="cls-1" d="m472.27,296.18c-7.04,0-13.17,5.77-13.17,12.99v38.78c0,14.97-7.4,21.47-17.31,21.47-.22,0-.41-.02-.62-.03-9.44-.4-16.4-6.89-16.4-21.39v-38.78c0-7.21-6.14-12.99-13.17-12.99s-13.17,5.77-13.17,12.99v38.78c0,31.38,21.46,43.81,42.74,43.81s44.26-12.48,44.26-43.86v-38.78c0-7.21-5.95-12.99-13.17-12.99Z"/>
    <path class="cls-1" d="m514.42,391.65c-7.21,0-13.17-5.77-13.17-12.98v-103.54c0-7.22,5.95-13.17,13.17-13.17s13.17,5.95,13.17,13.17v103.54c0,7.21-5.95,12.98-13.17,12.98Z"/>
    <path class="cls-1" d="m263.35,296.42c-7.22,0-13.17,5.95-13.17,12.99v.72c-3.07-7.39-12.62-14.25-25.07-14.25-19.66,0-43.47,15.88-43.47,47.98s23.63,48.16,43.47,48.16c14.25,0,22.91-7.94,25.07-12.98,0,7.03,5.95,12.8,13.17,12.8s13.35-5.77,13.35-12.99v-69.44c0-7.04-6.31-12.99-13.35-12.99Zm-23.87,70.65c-.3.16-.6.31-.9.45-.28.13-.55.24-.84.36-.37.15-.74.3-1.11.43-.44.16-.88.3-1.33.43-.01,0-.03,0-.04.01-2.07.6-4.25.95-6.51.95-13.49,0-24.43-11.51-24.43-25.72s10.94-25.72,24.43-25.72c1.36,0,2.69.15,4,.37,3.12.44,6.41,1.64,9.35,3.82,6.67,4.59,11.08,12.51,11.08,21.52,0,10.15-5.6,18.9-13.71,23.08Z"/>
    <path class="cls-1" d="m729.63,296.42c-7.22,0-13.17,5.95-13.17,12.99v.72c-3.07-7.39-12.62-14.25-25.07-14.25-19.66,0-43.47,15.88-43.47,47.98s23.63,48.16,43.47,48.16c14.25,0,22.91-7.94,25.07-12.98,0,7.03,5.95,12.8,13.17,12.8s13.35-5.77,13.35-12.99v-69.44c0-7.04-6.31-12.99-13.35-12.99Zm-35.21,73.28c-13.49,0-24.43-11.51-24.43-25.72s10.94-25.72,24.43-25.72,24.43,11.51,24.43,25.72-10.94,25.72-24.43,25.72Z"/>
    <path class="cls-1" d="m368.49,296.09c-7.22,0-13.17,5.95-13.17,12.99v.72c-3.07-7.39-12.62-14.25-25.07-14.25-19.66,0-43.47,15.88-43.47,47.98s23.63,48.16,43.47,48.16c13.89,0,22.37-7.39,24.89-12.63v9.56c0,8.48-6.49,16.24-20.38,16.24-8.12,0-13.89-2.35-17.5-2.89-2.53-.72-3.97-.72-5.05-.72-5.59,0-10.28,4.33-10.28,10.46,0,4.69,3.07,8.84,8.66,11.18,3.97,1.63,12.99,4.51,23.99,4.51,19.12,0,46.9-9.38,46.9-38.78v-7.21c.18-.9.36-72.33.36-72.33,0-7.04-6.31-12.99-13.35-12.99Zm-36,73.61c-13.49,0-24.43-11.51-24.43-25.72s10.94-25.72,24.43-25.72,24.43,11.51,24.43,25.72-10.94,25.72-24.43,25.72Z"/>
    <path class="cls-1" d="m596.32,295.87c-12.45,0-22.01,6.86-25.08,14.25v-.72c0-7.04-5.95-12.99-13.17-12.99s-13.35,5.95-13.35,12.99v103.9c0,7.21,5.95,13.17,13.17,13.17s13.53-5.95,13.53-13.17v-33.92c2.53,5.24,11,12.63,24.89,12.63,19.84,0,43.47-15.33,43.47-48.16s-23.81-47.98-43.47-47.98Zm-3,73.83c-13.49,0-24.43-11.51-24.43-25.72s10.94-25.72,24.43-25.72,24.43,11.51,24.43,25.72-10.93,25.72-24.43,25.72Z"/>
  </g>
</svg>