<?xml version="1.0" encoding="UTF-8"?>
<svg id="Capa_1" data-name="Capa 1" xmlns="http://www.w3.org/2000/svg" viewBox="0 0 841.89 512.44">
  <defs>
    <style>
      .cls-1 {
        font-family: VisbyRoundCF-MediumOblique, 'Visby Round CF';
        font-size: 34.98px;
        font-style: oblique;
        font-weight: 500;
      }

      .cls-1, .cls-2 {
        fill: #00476b;
      }

      .cls-3 {
        letter-spacing: 0em;
      }

      .cls-4 {
        letter-spacing: -.02em;
      }

      .cls-5 {
        letter-spacing: -.03em;
      }

      .cls-6 {
        letter-spacing: 0em;
      }

      .cls-7 {
        letter-spacing: 0em;
      }
    </style>
  </defs>
  <g>
    <g>
      <path class="cls-2" d="m388.46,222.82c-2.34,0-4.69-.86-6.53-2.59-3.85-3.61-4.04-9.65-.43-13.5l13.33-14.2-14.65-15.06c-3.68-3.78-3.59-9.83.19-13.51,3.78-3.68,9.83-3.59,13.51.19l21.01,21.6c3.56,3.66,3.61,9.47.12,13.2l-19.58,20.86c-1.88,2-4.42,3.01-6.97,3.01Z"/>
      <g>
        <path class="cls-2" d="m453.13,201.82c-2.6,0-5.19-1.05-7.07-3.13l-40.91-45.01c-3.55-3.9-3.26-9.94.64-13.49,3.9-3.55,9.94-3.26,13.49.64l40.91,45.01c3.55,3.9,3.26,9.94-.64,13.49-1.83,1.66-4.13,2.48-6.42,2.48Z"/>
        <path class="cls-2" d="m431.93,225.98c-2.24,0-4.48-.78-6.29-2.37-3.97-3.48-4.36-9.51-.88-13.48l21.2-24.17c3.48-3.97,9.51-4.36,13.48-.88,3.97,3.48,4.36,9.51.88,13.48l-21.2,24.17c-1.89,2.15-4.53,3.25-7.18,3.25Z"/>
      </g>
    </g>
    <g>
      <path class="cls-2" d="m295.4,256.03c.53.71,1.6,2.04,1.6,4.18,0,3.2-2.13,4.89-4.98,4.89-1.87,0-3.64-.71-5.33-2.58-1.78-1.87-3.55-2.58-5.51-2.58-2.84,0-4.62,1.42-4.62,3.47,0,.89.18,2.67,3.91,3.73l5.42,1.51c6.76,2.05,12.89,5.42,12.89,13.51,0,10.05-9.24,14.76-18.49,14.76-8.18,0-12.62-3.46-15.11-6.04-.53-.53-2.76-3.11-2.76-6.13,0-2.13,1.33-4.89,4.98-4.89,2.58,0,4.09,1.6,5.25,2.93,2.67,3.02,5.16,3.64,7.64,3.64,3.91,0,5.6-1.78,5.6-3.55,0-.89-.36-2.85-4.53-4.09l-4.62-1.42c-9.07-2.58-12.89-7.47-12.89-13.87,0-9.33,8.53-13.78,16.89-13.78,5.87,0,11.73,2.22,14.67,6.31Z"/>
      <path class="cls-2" d="m446.06,249.87c-3.47,0-6.49,2.85-6.49,6.4v19.11c0,7.38-3.65,10.58-8.53,10.58-.11,0-.2-.01-.3-.01-4.65-.2-8.08-3.4-8.08-10.54v-19.11c0-3.55-3.02-6.4-6.49-6.4s-6.49,2.85-6.49,6.4v19.11c0,15.47,10.58,21.59,21.06,21.59s21.81-6.15,21.81-21.62v-19.11c0-3.55-2.93-6.4-6.49-6.4Z"/>
      <path class="cls-2" d="m466.83,296.92c-3.55,0-6.49-2.84-6.49-6.4v-51.02c0-3.56,2.93-6.49,6.49-6.49s6.49,2.93,6.49,6.49v51.02c0,3.55-2.93,6.4-6.49,6.4Z"/>
      <path class="cls-2" d="m343.1,249.99c-3.56,0-6.49,2.93-6.49,6.4v.35c-1.51-3.64-6.22-7.02-12.36-7.02-9.69,0-21.42,7.82-21.42,23.65s11.65,23.73,21.42,23.73c7.02,0,11.29-3.91,12.36-6.4,0,3.46,2.93,6.31,6.49,6.31s6.58-2.85,6.58-6.4v-34.22c0-3.47-3.11-6.4-6.58-6.4Zm-11.76,34.82c-.15.08-.29.15-.44.22-.14.06-.27.12-.41.18-.18.08-.36.15-.55.21-.22.08-.43.15-.65.21,0,0-.01,0-.02,0-1.02.3-2.09.47-3.21.47-6.65,0-12.04-5.67-12.04-12.67s5.39-12.67,12.04-12.67c.67,0,1.33.07,1.97.18,1.54.22,3.16.81,4.61,1.88,3.29,2.26,5.46,6.17,5.46,10.61,0,5-2.76,9.31-6.76,11.37Z"/>
      <path class="cls-2" d="m572.89,249.99c-3.56,0-6.49,2.93-6.49,6.4v.35c-1.51-3.64-6.22-7.02-12.36-7.02-9.69,0-21.42,7.82-21.42,23.65s11.65,23.73,21.42,23.73c7.02,0,11.29-3.91,12.36-6.4,0,3.46,2.93,6.31,6.49,6.31s6.58-2.85,6.58-6.4v-34.22c0-3.47-3.11-6.4-6.58-6.4Zm-17.35,36.11c-6.65,0-12.04-5.67-12.04-12.67s5.39-12.67,12.04-12.67,12.04,5.67,12.04,12.67-5.39,12.67-12.04,12.67Z"/>
      <path class="cls-2" d="m394.91,249.83c-3.56,0-6.49,2.93-6.49,6.4v.35c-1.51-3.64-6.22-7.02-12.36-7.02-9.69,0-21.42,7.82-21.42,23.65s11.65,23.73,21.42,23.73c6.84,0,11.02-3.64,12.27-6.22v4.71c0,4.18-3.2,8-10.05,8-4,0-6.84-1.16-8.62-1.42-1.25-.36-1.95-.36-2.49-.36-2.76,0-5.07,2.13-5.07,5.16,0,2.31,1.51,4.36,4.27,5.51,1.96.8,6.4,2.22,11.82,2.22,9.42,0,23.11-4.62,23.11-19.11v-3.55c.09-.45.18-35.65.18-35.65,0-3.47-3.11-6.4-6.58-6.4Zm-17.74,36.28c-6.65,0-12.04-5.67-12.04-12.67s5.39-12.67,12.04-12.67,12.04,5.67,12.04,12.67-5.39,12.67-12.04,12.67Z"/>
      <path class="cls-2" d="m507.19,249.72c-6.13,0-10.84,3.38-12.36,7.02v-.35c0-3.47-2.93-6.4-6.49-6.4s-6.58,2.93-6.58,6.4v51.2c0,3.55,2.93,6.49,6.49,6.49s6.67-2.93,6.67-6.49v-16.71c1.25,2.58,5.42,6.22,12.27,6.22,9.78,0,21.42-7.56,21.42-23.73s-11.73-23.65-21.42-23.65Zm-1.48,36.38c-6.65,0-12.04-5.67-12.04-12.67s5.39-12.67,12.04-12.67,12.04,5.67,12.04,12.67-5.39,12.67-12.04,12.67Z"/>
    </g>
  </g>
  <g>
    <text class="cls-1" transform="translate(358.99 365.61)"><tspan x="0" y="0">an</tspan><tspan class="cls-3" x="41.7" y="0">i</tspan><tspan class="cls-5" x="48.8" y="0">v</tspan><tspan class="cls-7" x="66.47" y="0">e</tspan><tspan class="cls-4" x="86.65" y="0">r</tspan><tspan class="cls-7" x="99.77" y="0">s</tspan><tspan x="115.62" y="0">a</tspan><tspan class="cls-6" x="136.85" y="0">r</tspan><tspan x="150.77" y="0">io</tspan></text>
    <g>
      <path class="cls-2" d="m334.06,336.84c0,1.35-.62,2.93-1.86,4.22l-6.7,6.65c3.6.9,7.43,4.28,7.43,10.14,0,7.88-7.89,13.86-16.5,13.86-5.69,0-12.28-3.55-12.28-8.79,0-2.14,1.75-4.39,4.45-4.39,2.14,0,3.27,1.24,3.6,2.31,1.24,3.32,4.51,3.21,5.63,3.21,2.98,0,6.03-2.03,6.03-5.35,0-3.94-4.45-4.9-5.63-5.41-1.52-.34-2.53-1.58-2.53-2.98,0-1.58,1.3-2.7,2.65-4.34l6.14-6.59h-12.11c-2.14,0-3.83-1.69-3.83-3.83s1.69-3.83,3.83-3.83h15.71c3.49,0,5.97,2.31,5.97,5.13Z"/>
      <path class="cls-2" d="m353.35,355.43l-.13,1.05c-1.27,10.27-8,15.03-14.77,15.03-5.98,0-11.79-4.76-10.53-15.03l.13-1.05c1.27-10.18,8.13-15.03,14.77-15.03,6.12,0,11.8,4.85,10.53,15.03Zm-18.31,0l-.13,1.05c-.44,3.41-.44,9.09,4.37,9.09s6.55-5.68,6.95-9.09l.13-1.05c.44-3.41.39-9.09-4.37-9.09s-6.51,5.68-6.95,9.09Z"/>
      <path class="cls-2" d="m319.31,353.62c-.92,0-1.84-.32-2.58-.98-1.6-1.42-1.74-3.88-.32-5.48l12.31-13.84c1.43-1.6,3.88-1.74,5.48-.32,1.6,1.42,1.74,3.88.32,5.48l-12.31,13.84c-.77.86-1.83,1.3-2.9,1.3Z"/>
      <path class="cls-2" d="m331.86,339.41h-19.49c-2.14,0-3.88-1.74-3.88-3.88s1.74-3.88,3.88-3.88h19.49c2.14,0,3.88,1.74,3.88,3.88s-1.74,3.88-3.88,3.88Z"/>
    </g>
  </g>
</svg>