<?xml version="1.0" encoding="UTF-8"?>
<svg id="Capa_1" data-name="Capa 1" xmlns="http://www.w3.org/2000/svg" viewBox="0 0 841.89 512.44">
  <defs>
    <style>
      .cls-1 {
        fill: #00476b;
      }
    </style>
  </defs>
  <path class="cls-1" d="m433.04,236.22c0,2.45-1.12,5.3-3.36,7.64l-12.12,12.02c6.52,1.63,13.45,7.74,13.45,18.34,0,14.26-14.26,25.06-29.85,25.06-10.29,0-22.21-6.42-22.21-15.89,0-3.87,3.16-7.95,8.05-7.95,3.87,0,5.91,2.24,6.52,4.18,2.24,6.01,8.15,5.81,10.19,5.81,5.4,0,10.9-3.67,10.9-9.68,0-7.13-8.05-8.86-10.19-9.78-2.75-.61-4.58-2.85-4.58-5.4,0-2.85,2.34-4.89,4.79-7.85l11.1-11.92h-21.9c-3.87,0-6.93-3.06-6.93-6.93s3.05-6.93,6.93-6.93h28.42c6.32,0,10.8,4.18,10.8,9.27Z"/>
  <path class="cls-1" d="m467.94,269.85l-.24,1.9c-2.29,18.57-14.46,27.18-26.71,27.18-10.82,0-21.33-8.61-19.04-27.18l.24-1.9c2.29-18.41,14.7-27.18,26.71-27.18,11.06,0,21.34,8.77,19.04,27.18Zm-33.11,0l-.24,1.9c-.79,6.16-.79,16.44,7.9,16.44s11.85-10.27,12.56-16.44l.24-1.9c.79-6.16.71-16.44-7.9-16.44s-11.78,10.27-12.56,16.44Z"/>
  <path class="cls-1" d="m406.37,266.57c-1.66,0-3.32-.58-4.66-1.78-2.89-2.57-3.15-7.01-.58-9.9l22.27-25.03c2.57-2.89,7.01-3.15,9.9-.58,2.89,2.58,3.15,7.01.58,9.9l-22.27,25.03c-1.39,1.56-3.31,2.35-5.24,2.35Z"/>
  <path class="cls-1" d="m429.08,240.87h-35.24c-3.87,0-7.01-3.14-7.01-7.01s3.14-7.01,7.01-7.01h35.24c3.87,0,7.01,3.14,7.01,7.01s-3.14,7.01-7.01,7.01Z"/>
  <g>
    <path class="cls-1" d="m348.86,302.11l1.76-.8c.68-.31,1.51.03,1.82.73.35.76.05,1.58-.63,1.89l-13.07,5.97c-.65.29-1.51-.03-1.84-.76-.32-.69,0-1.56.64-1.85l2.11-.97c-2.08.19-4.66-1.26-5.93-4.06-1.6-3.5-.98-8.92,4.3-11.33,5.23-2.39,9.75.68,11.35,4.18,1.09,2.39,1,5.14-.53,7.01Zm-4.67,2.28c4.02-1.84,4.38-5.5,3.25-7.96-1.17-2.55-4.37-4.67-8.21-2.91-3.88,1.77-4.35,5.56-3.18,8.11,1.12,2.46,4.21,4.55,8.14,2.75Z"/>
    <path class="cls-1" d="m362.3,325.14l-6.28,5.81c-.52.48-1.44.44-1.98-.15-.54-.59-.49-1.48.03-1.96l6.28-5.81c2.58-2.39,2-4.97.36-6.75-2.4-2.59-5.66-2.03-7.23-1.01l-6.45,5.96c-.52.48-1.44.44-1.96-.12-.54-.59-.51-1.51,0-1.99l10.53-9.73c.54-.5,1.44-.44,1.98.15.52.56.51,1.46-.03,1.96l-1.92,1.78c.95-.59,4.56-1.01,7.36,2.02,2.21,2.39,3.24,6.21-.7,9.85Z"/>
    <path class="cls-1" d="m374.38,326.76l-8.28,11.7c-.45.63-1.34.75-1.96.31-.65-.46-.83-1.34-.38-1.97l8.28-11.7c.43-.61,1.32-.73,1.97-.27.62.44.8,1.32.38,1.93Zm1.38-6.98c.43-.61,1.35-.71,2-.25.62.44.83,1.34.4,1.95-.43.61-1.35.71-1.97.27-.65-.46-.86-1.36-.43-1.97Z"/>
    <path class="cls-1" d="m393.98,336.83c-.11.23-.27.34-.41.49l-11.86,10.06c-.55.46-1.06.65-1.75.34-.66-.3-.85-.81-.86-1.53l-.22-15.56c.02-.21.02-.38.13-.62.27-.59,1.05-.87,1.74-.56.5.23.86.71.85,1.38l-.02,13.33,10.08-8.75c.51-.44,1.1-.49,1.6-.26.66.3.99,1.09.72,1.68Z"/>
    <path class="cls-1" d="m413.73,347.84c-.18,1.02-.92,1.38-2.08,1.17l-12.54-2.32c-.33,3.61,2.3,5.82,5.23,6.35,1.57.28,2.9.1,4.17-.49.57-.23.9-.33,1.28-.26.65.12.98.6.88,1.17-.06.35-.3.67-.96,1.04-1.56.87-3.68,1.11-5.83.72-4.36-.79-8.56-4.29-7.53-10.01,1.03-5.72,6.37-7.61,10.25-6.91,3.89.7,8.04,4.4,7.12,9.55Zm-14.26-3.12l11.59,2.09c.33-3.61-2.31-5.73-4.87-6.19-2.52-.45-5.77.6-6.72,4.1Z"/>
    <path class="cls-1" d="m431.15,340.59c.03.77-.6,1.32-1.81,1.37-3.29.14-5.37,2.65-5.63,4.66l.37,8.78c.03.74-.6,1.38-1.36,1.42-.8.03-1.48-.55-1.51-1.29l-.6-14.33c-.03-.74.6-1.38,1.4-1.42.76-.03,1.45.55,1.48,1.3l.11,2.61c.16-1.11,2.25-4.13,5.96-4.29,1-.04,1.58.48,1.61,1.19Z"/>
    <path class="cls-1" d="m447.66,338.49c.28.27.49.55.58.92.15.63-.26,1.13-.9,1.28-.47.11-.89.01-1.5-.47-.89-.75-2.17-1.17-3.89-.76-2.02.48-3.04,1.73-2.71,3.11.25,1.04,1.2,1.74,3.3,1.73l2.28-.02c3.18.03,5.52.73,6.12,3.24.76,3.17-2.07,5.61-5.57,6.45-2.86.69-5.44.04-6.61-1.27-.19-.19-.67-.57-.81-1.17-.14-.57.14-1.2.88-1.37.61-.15,1.02.09,1.4.49,1.13,1.29,2.86,1.51,4.61,1.09,2.19-.53,3.77-1.8,3.38-3.4-.3-1.26-1.48-1.7-3.37-1.71l-2.68-.02c-3.35-.02-5.16-1.32-5.65-3.36-.66-2.73,1.57-5.16,4.91-5.96,2.53-.61,4.79-.09,6.23,1.19Z"/>
    <path class="cls-1" d="m466.9,330.59l-.9-1.71c-.35-.66-.05-1.51.62-1.86.73-.39,1.57-.14,1.92.52l6.69,12.71c.33.63.05,1.51-.65,1.88-.67.35-1.56.09-1.89-.54l-1.08-2.06c.31,2.06-1,4.72-3.72,6.16-3.4,1.79-8.84,1.49-11.55-3.65-2.68-5.08.13-9.77,3.53-11.56,2.33-1.23,5.08-1.29,7.03.13Zm2.54,4.53c-2.06-3.91-5.74-4.06-8.13-2.8-2.48,1.31-4.41,4.62-2.44,8.36,1.99,3.77,5.8,4.02,8.28,2.72,2.39-1.26,4.31-4.46,2.29-8.28Z"/>
    <path class="cls-1" d="m481.49,316.18c.52.57.38,1.4-.52,2.21-2.44,2.2-2.44,5.46-1.36,7.18l5.88,6.52c.5.55.42,1.45-.15,1.96-.59.53-1.49.52-1.99-.03l-9.6-10.64c-.5-.55-.42-1.45.17-1.98.57-.51,1.47-.5,1.96.06l1.75,1.94c-.58-.95-.9-4.62,1.85-7.1.75-.67,1.53-.64,2-.11Z"/>
    <path class="cls-1" d="m480.18,307.8c-.58-.46-.64-1.38-.15-2.01.47-.6,1.38-.77,1.96-.31.58.46.64,1.38.17,1.98-.49.63-1.4.79-1.99.34Zm6.9,1.71l11.28,8.84c.61.48.69,1.37.22,1.97-.49.63-1.38.77-1.99.29l-11.28-8.84c-.58-.46-.66-1.36-.17-1.98.47-.6,1.36-.74,1.94-.28Z"/>
    <path class="cls-1" d="m505.11,291.48c5.24,2.44,5.67,8.18,3.98,11.82-1.68,3.61-6.34,6.99-11.58,4.55-5.21-2.42-5.7-8.19-4.02-11.8,1.69-3.65,6.41-6.99,11.62-4.57Zm-6.41,13.8c3.75,1.74,7.04-.36,8.25-2.97,1.23-2.64.7-6.48-3.05-8.22-3.78-1.75-7.05.31-8.28,2.95-1.21,2.61-.7,6.48,3.08,8.23Z"/>
  </g>
  <circle class="cls-1" cx="329.1" cy="262.71" r="4.86"/>
  <circle class="cls-1" cx="512.67" cy="262.71" r="4.86"/>
  <g>
    <path class="cls-1" d="m335.61,204.96c.51-.02,1.5-.09,2.52.6,1.53,1.05,1.64,2.62.71,3.98-.61.89-1.53,1.51-2.98,1.71-1.47.24-2.4.86-3.04,1.79-.93,1.36-.83,2.68.14,3.35.43.29,1.33.79,3.07-.65l2.5-2.1c3.19-2.56,6.82-4.39,10.69-1.73,4.8,3.29,4.03,9.26,1,13.68-2.68,3.91-5.79,4.9-7.84,5.24-.43.08-2.39.3-3.84-.69-1.02-.7-1.9-2.24-.71-3.98.84-1.23,2.11-1.43,3.12-1.55,2.32-.28,3.43-1.27,4.25-2.46,1.28-1.87.99-3.26.14-3.84-.43-.29-1.48-.76-3.44.83l-2.2,1.74c-4.2,3.49-7.8,3.72-10.86,1.62-4.46-3.06-3.79-8.6-1.05-12.59,1.92-2.81,4.91-4.88,7.83-4.94Z"/>
    <path class="cls-1" d="m358.79,178.33c-1.62,1.29-1.89,3.69-.63,5.27l.13.16c-2.01-1.11-5.38-.94-8.18,1.28-4.42,3.52-6.92,11.34-1.18,18.55,5.87,7.37,13.92,6.59,18.38,3.04,3.2-2.55,3.73-5.88,3.31-7.4,1.26,1.58,3.63,1.81,5.25.52,1.58-1.26,1.96-3.68.67-5.3l-12.42-15.59c-1.26-1.58-3.74-1.79-5.32-.53Zm7.28,20.13c-.04.09-.08.18-.12.26-.04.08-.08.15-.12.23-.06.1-.11.2-.17.29-.07.11-.14.22-.22.33,0,0,0,0,0,0-.36.51-.78.97-1.29,1.38-3.03,2.41-7.54,1.78-10.08-1.41-2.54-3.19-2.14-7.73.89-10.14.31-.24.63-.45.96-.63.78-.46,1.73-.78,2.78-.81,2.32-.16,4.73.83,6.34,2.85,1.82,2.28,2.12,5.25,1.05,7.64Z"/>
    <path class="cls-1" d="m516.95,213.92c-1.21-1.68-3.59-2.07-5.23-.89l-.17.12c1.21-1.95,1.21-5.33-.88-8.23-3.3-4.58-10.99-7.47-18.47-2.09-7.65,5.5-7.26,13.58-3.94,18.2,2.39,3.32,5.69,4.01,7.23,3.67-1.64,1.18-1.99,3.53-.78,5.22,1.18,1.64,3.58,2.14,5.26.93l16.19-11.64c1.64-1.18,1.97-3.65.79-5.29Zm-20.47,6.28c-.09-.04-.17-.09-.26-.13-.08-.04-.15-.09-.22-.13-.1-.06-.19-.12-.28-.19-.11-.08-.22-.16-.32-.24,0,0,0,0,0,0-.49-.38-.93-.83-1.31-1.36-2.26-3.14-1.41-7.62,1.9-10,3.31-2.38,7.83-1.76,10.09,1.38.23.32.42.65.58.99.42.8.69,1.77.68,2.82.05,2.32-1.06,4.68-3.16,6.19-2.37,1.7-5.34,1.86-7.68.67Z"/>
    <path class="cls-1" d="m435.94,160.38c-2.02-.1-3.86,1.46-3.96,3.53l-.56,11.12c-.22,4.29-2.43,6.05-5.28,5.9-.06,0-.12-.01-.18-.02-2.7-.25-4.6-2.21-4.39-6.37l.56-11.12c.1-2.07-1.57-3.81-3.59-3.92s-3.86,1.46-3.96,3.53l-.56,11.12c-.46,9,5.52,12.87,11.62,13.18,6.35.32,12.87-2.93,13.33-11.93l.56-11.12c.1-2.07-1.52-3.81-3.59-3.92Z"/>
    <path class="cls-1" d="m446.87,191.04c-1.96-.67-3.04-2.79-2.36-4.75l9.66-28.11c.67-1.96,2.84-3.02,4.8-2.35,1.96.67,3.02,2.84,2.35,4.8l-9.66,28.11c-.67,1.96-2.83,2.97-4.79,2.3Z"/>
    <path class="cls-1" d="m396.34,162.18c-1.97.63-3.08,2.78-2.46,4.71l.06.2c-1.49-1.75-4.7-2.79-8.1-1.69-5.37,1.73-10.49,8.16-7.67,16.93,2.88,8.97,10.69,11.09,16.11,9.35,3.8-1.22,5.46-3.98,5.7-5.64l.84,2.61c.74,2.32-.35,5.01-4.15,6.23-2.22.71-4,.58-5.04.75-.75.02-1.15.15-1.44.25-1.53.49-2.43,2.09-1.89,3.76.41,1.28,1.61,2.15,3.35,2.3,1.23.1,3.95.09,6.95-.87,5.23-1.68,12-6.68,9.41-14.72l-6.89-21.77c-.62-1.92-2.87-3-4.79-2.38Zm-3.38,23.28c-3.69,1.18-7.69-1-8.93-4.88-1.25-3.88.73-7.99,4.42-9.17,3.69-1.18,7.69,1,8.93,4.88,1.25,3.88-.73,7.99-4.42,9.17Z"/>
    <path class="cls-1" d="m484.68,179.53c-2.96-2-6.34-1.9-8.26-.63l.12-.17c1.13-1.67.67-4.05-1.05-5.2s-4.13-.73-5.26.95l-16.67,24.73c-1.16,1.72-.7,4.09,1.02,5.25,1.72,1.16,4.18.75,5.33-.96l5.44-8.07c-.24,1.65.59,4.77,3.9,7,4.72,3.18,12.81,3.33,18.08-4.49,5.15-7.64,2.03-15.24-2.65-18.4Zm-12.56,17.09c-3.21-2.16-3.97-6.66-1.69-10.04,2.28-3.38,6.73-4.37,9.94-2.2,3.21,2.16,3.97,6.66,1.69,10.04-2.28,3.38-6.73,4.37-9.94,2.2Z"/>
  </g>
</svg>