<?xml version="1.0" encoding="UTF-8"?>
<svg id="Capa_1" data-name="Capa 1" xmlns="http://www.w3.org/2000/svg" viewBox="0 0 841.89 512.44">
  <defs>
    <style>
      .cls-1 {
        fill: #00476a;
      }

      .cls-2 {
        fill: #fdc53a;
      }

      .cls-3 {
        fill: #f1840d;
      }

      .cls-4 {
        fill: #61a032;
      }
    </style>
  </defs>
  <g>
    <g>
      <path class="cls-3" d="m379.29,243.71c-3.03,0-6.07-1.11-8.45-3.35-4.97-4.67-5.22-12.49-.55-17.46l17.25-18.37-18.95-19.48c-4.76-4.89-4.65-12.71.24-17.47,4.89-4.76,12.71-4.65,17.47.24l27.18,27.94c4.6,4.73,4.67,12.25.15,17.07l-25.33,26.98c-2.43,2.59-5.72,3.9-9.01,3.9Z"/>
      <g>
        <path class="cls-2" d="m462.94,216.55c-3.36,0-6.71-1.36-9.15-4.05l-52.92-58.22c-4.59-5.05-4.22-12.86.83-17.45,5.05-4.59,12.86-4.22,17.45.83l52.92,58.22c4.59,5.05,4.22,12.86-.83,17.45-2.37,2.15-5.34,3.21-8.31,3.21Z"/>
        <path class="cls-4" d="m435.51,247.8c-2.89,0-5.8-1.01-8.14-3.07-5.13-4.5-5.64-12.3-1.14-17.43l27.42-31.26c4.5-5.13,12.31-5.64,17.43-1.14,5.13,4.5,5.64,12.3,1.14,17.43l-27.42,31.26c-2.44,2.78-5.86,4.21-9.29,4.21Z"/>
      </g>
    </g>
    <g>
      <path class="cls-1" d="m258.92,286.68c.69.92,2.07,2.64,2.07,5.4,0,4.14-2.76,6.33-6.44,6.33-2.41,0-4.71-.92-6.9-3.33-2.3-2.41-4.6-3.33-7.13-3.33-3.68,0-5.98,1.84-5.98,4.48,0,1.15.23,3.45,5.06,4.83l7.02,1.95c8.74,2.65,16.67,7.02,16.67,17.48,0,12.99-11.96,19.09-23.92,19.09-10.58,0-16.32-4.48-19.55-7.82-.69-.69-3.56-4.02-3.56-7.93,0-2.76,1.72-6.33,6.44-6.33,3.33,0,5.29,2.07,6.79,3.79,3.45,3.91,6.67,4.71,9.89,4.71,5.06,0,7.25-2.3,7.25-4.6,0-1.15-.46-3.68-5.86-5.29l-5.98-1.84c-11.73-3.33-16.67-9.66-16.67-17.94,0-12.07,11.04-17.82,21.85-17.82,7.59,0,15.18,2.87,18.97,8.17Z"/>
      <path class="cls-1" d="m453.79,278.71c-4.48,0-8.39,3.68-8.39,8.28v24.72c0,9.54-4.71,13.68-11.04,13.68-.14,0-.26-.02-.39-.02-6.02-.26-10.45-4.39-10.45-13.63v-24.72c0-4.6-3.91-8.28-8.4-8.28s-8.39,3.68-8.39,8.28v24.72c0,20.01,13.68,27.93,27.25,27.93s28.21-7.95,28.21-27.96v-24.72c0-4.6-3.79-8.28-8.39-8.28Z"/>
      <path class="cls-1" d="m480.66,339.56c-4.6,0-8.39-3.68-8.39-8.28v-66c0-4.6,3.79-8.4,8.39-8.4s8.4,3.79,8.4,8.4v66c0,4.6-3.79,8.28-8.4,8.28Z"/>
      <path class="cls-1" d="m320.62,278.86c-4.6,0-8.39,3.79-8.39,8.28v.46c-1.95-4.71-8.05-9.08-15.98-9.08-12.53,0-27.71,10.12-27.71,30.59s15.06,30.7,27.71,30.7c9.08,0,14.6-5.06,15.98-8.28,0,4.48,3.79,8.16,8.39,8.16s8.51-3.68,8.51-8.28v-44.27c0-4.48-4.02-8.28-8.51-8.28Zm-15.22,45.03c-.19.1-.38.2-.57.29-.18.08-.35.16-.53.23-.23.1-.47.19-.71.27-.28.1-.56.19-.85.27,0,0-.02,0-.03,0-1.32.38-2.71.61-4.15.61-8.6,0-15.57-7.34-15.57-16.39s6.97-16.39,15.57-16.39c.87,0,1.72.09,2.55.24,1.99.28,4.09,1.05,5.96,2.43,4.25,2.93,7.07,7.97,7.07,13.72,0,6.47-3.57,12.05-8.74,14.71Z"/>
      <path class="cls-1" d="m617.84,278.86c-4.6,0-8.39,3.79-8.39,8.28v.46c-1.95-4.71-8.05-9.08-15.98-9.08-12.53,0-27.71,10.12-27.71,30.59s15.06,30.7,27.71,30.7c9.08,0,14.6-5.06,15.98-8.28,0,4.48,3.79,8.16,8.39,8.16s8.51-3.68,8.51-8.28v-44.27c0-4.48-4.02-8.28-8.51-8.28Zm-22.44,46.71c-8.6,0-15.57-7.34-15.57-16.39s6.97-16.39,15.57-16.39,15.57,7.34,15.57,16.39-6.97,16.39-15.57,16.39Z"/>
      <path class="cls-1" d="m387.64,278.65c-4.6,0-8.4,3.79-8.4,8.28v.46c-1.95-4.71-8.05-9.08-15.98-9.08-12.53,0-27.71,10.12-27.71,30.59s15.06,30.7,27.71,30.7c8.85,0,14.26-4.71,15.87-8.05v6.09c0,5.4-4.14,10.35-12.99,10.35-5.17,0-8.85-1.5-11.15-1.84-1.61-.46-2.53-.46-3.22-.46-3.56,0-6.56,2.76-6.56,6.67,0,2.99,1.95,5.63,5.52,7.13,2.53,1.04,8.28,2.88,15.29,2.88,12.19,0,29.9-5.98,29.9-24.72v-4.6c.11-.58.23-46.11.23-46.11,0-4.48-4.02-8.28-8.51-8.28Zm-22.95,46.92c-8.6,0-15.57-7.34-15.57-16.39s6.97-16.39,15.57-16.39,15.57,7.34,15.57,16.39-6.97,16.39-15.57,16.39Z"/>
      <path class="cls-1" d="m532.87,278.51c-7.94,0-14.03,4.37-15.98,9.08v-.46c0-4.48-3.79-8.28-8.39-8.28s-8.51,3.79-8.51,8.28v66.23c0,4.6,3.79,8.39,8.39,8.39s8.63-3.79,8.63-8.39v-21.62c1.61,3.34,7.01,8.05,15.87,8.05,12.65,0,27.71-9.77,27.71-30.7s-15.18-30.59-27.71-30.59Zm-1.91,47.06c-8.6,0-15.57-7.34-15.57-16.39s6.97-16.39,15.57-16.39,15.57,7.34,15.57,16.39-6.97,16.39-15.57,16.39Z"/>
    </g>
  </g>
  <g>
    <path class="cls-1" d="m273.3,401.25c0,.5-.31.89-.91,1.28-1.25.94-2.84,1.49-4.77,1.49-4.56,0-9.12-3.81-9.12-9.3s4.54-9.3,9.17-9.3c1.88,0,3.44.55,4.72,1.46.6.42.91.78.91,1.3,0,.6-.47.99-1.02.99-.44,0-.76-.23-1.09-.5-.73-.6-2.06-1.17-3.54-1.17-3.49,0-6.85,3.02-6.85,7.22s3.36,7.22,6.83,7.22c1.54,0,2.84-.57,3.57-1.17.34-.26.68-.5,1.09-.5.55,0,1.02.39,1.02.99Z"/>
    <path class="cls-1" d="m280.46,386.61v16.21c0,.63-.5,1.15-1.09,1.15-.65,0-1.15-.52-1.15-1.15v-16.21c0-.63.5-1.15,1.15-1.15.6,0,1.09.52,1.09,1.15Z"/>
    <path class="cls-1" d="m300.25,386.58v10.48c0,4.38-3,6.96-7.04,6.96s-7.04-2.58-7.04-6.96v-10.48c0-.57.47-1.07,1.09-1.07s1.12.5,1.12,1.07v10.45c0,3.36,2.01,5.08,4.82,5.08s4.82-1.72,4.82-5.08v-10.45c0-.57.5-1.07,1.12-1.07s1.09.5,1.09,1.07Z"/>
    <path class="cls-1" d="m320.21,394.71c0,5.81-3.75,9.12-9.15,9.12h-3.91c-.7,0-1.2-.5-1.2-1.2v-15.85c0-.7.5-1.2,1.2-1.2h3.91c5.39,0,9.15,3.31,9.15,9.12Zm-2.21,0c0-4.79-2.55-7.22-6.93-7.22h-2.89v14.44h2.89c4.38,0,6.93-2.42,6.93-7.22Z"/>
    <path class="cls-1" d="m339.99,402.92c0,.55-.47,1.04-1.07,1.04-.52,0-.89-.31-1.07-.7l-1.85-4.3h-8.44l-1.85,4.3c-.18.39-.55.7-1.07.7-.6,0-1.07-.5-1.07-1.04,0-.21.05-.42.13-.57l6.99-16.05c.23-.55.55-.83,1.09-.83s.86.29,1.07.83l7.01,16.05c.08.16.13.36.13.57Zm-4.74-5.76l-3.47-8.05-3.47,8.05h6.93Z"/>
    <path class="cls-1" d="m359.16,394.71c0,5.81-3.75,9.12-9.15,9.12h-3.91c-.7,0-1.2-.5-1.2-1.2v-15.85c0-.7.5-1.2,1.2-1.2h3.91c5.39,0,9.15,3.31,9.15,9.12Zm-2.21,0c0-4.79-2.55-7.22-6.93-7.22h-2.89v14.44h2.89c4.38,0,6.93-2.42,6.93-7.22Z"/>
    <path class="cls-1" d="m375.01,401.88c.52,0,.99.42.99.96s-.47.99-.99.99h-9.59c-.7,0-1.2-.5-1.2-1.2v-15.85c0-.7.5-1.2,1.2-1.2h9.33c.52,0,.99.44.99.96,0,.57-.47.99-.99.99h-8.31v6.18h5.86c.52,0,.96.44.96.94,0,.52-.44.94-.96.94h-5.86v6.28h8.57Z"/>
    <path class="cls-1" d="m391.56,387.96c.31.44.47.73.47,1.07,0,.5-.37.89-.94.89-.44,0-.76-.23-.99-.55-.76-1.12-1.72-1.98-3.52-1.98-2.06,0-3.39,1.04-3.39,2.71,0,1.41.96,2.32,2.76,3.02l1.49.57c3.36,1.28,5.42,2.5,5.42,5.24,0,3.34-3.28,5.08-6.28,5.08-2.34,0-4.72-1.07-5.81-3.08-.13-.24-.36-.57-.36-.96,0-.52.34-.99.94-.99.52,0,.86.31,1.09.68.86,1.56,2.35,2.35,4.14,2.35,1.93,0,4.04-.86,4.04-3.08,0-1.9-1.51-2.55-3.54-3.34l-1.64-.65c-2.58-.99-4.48-2.4-4.48-4.85,0-2.84,2.5-4.69,5.58-4.69,2.48,0,4.14,1.2,5.03,2.55Z"/>
    <path class="cls-1" d="m409.28,386.61v16.21c0,.63-.5,1.15-1.09,1.15-.65,0-1.15-.52-1.15-1.15v-16.21c0-.63.5-1.15,1.15-1.15.6,0,1.09.52,1.09,1.15Z"/>
    <path class="cls-1" d="m429.42,386.66v16.24c0,.68-.5,1.04-1.02,1.04-.47,0-.81-.21-1.15-.65l-10.17-13.71v13.21c0,.6-.52,1.15-1.12,1.15s-1.12-.55-1.12-1.15v-16.24c0-.68.5-1.04,1.02-1.04.47,0,.81.21,1.15.65l10.16,13.71v-13.21c0-.6.52-1.15,1.12-1.15s1.12.55,1.12,1.15Z"/>
    <path class="cls-1" d="m447.37,386.55c0,.57-.47.99-.99.99h-4.48v15.25c0,.62-.5,1.17-1.09,1.17s-1.12-.55-1.12-1.17v-15.25h-4.51c-.52,0-.96-.42-.96-.99,0-.52.44-.96.96-.96h11.21c.52,0,.99.44.99.96Z"/>
    <path class="cls-1" d="m462.96,401.88c.52,0,.99.42.99.96s-.47.99-.99.99h-9.59c-.7,0-1.2-.5-1.2-1.2v-15.85c0-.7.5-1.2,1.2-1.2h9.33c.52,0,.99.44.99.96,0,.57-.47.99-.99.99h-8.31v6.18h5.86c.52,0,.96.44.96.94,0,.52-.44.94-.96.94h-5.86v6.28h8.57Z"/>
    <path class="cls-1" d="m478.91,401.88c.55,0,.99.42.99.96s-.44.99-.99.99h-8.83c-.7,0-1.2-.5-1.2-1.2v-15.98c0-.63.5-1.15,1.12-1.15s1.09.52,1.09,1.15v15.22h7.82Z"/>
    <path class="cls-1" d="m487.06,386.61v16.21c0,.63-.5,1.15-1.09,1.15-.65,0-1.15-.52-1.15-1.15v-16.21c0-.63.5-1.15,1.15-1.15.6,0,1.09.52,1.09,1.15Z"/>
    <path class="cls-1" d="m509.76,395.86c-.21,5.19-3.86,8.16-8.18,8.16-4.64,0-9.2-3.81-9.2-9.3s4.54-9.3,9.17-9.3c1.88,0,3.44.55,4.72,1.46.6.42.91.78.91,1.3,0,.6-.47.99-1.02.99-.44,0-.76-.23-1.09-.5-.73-.6-2.06-1.17-3.54-1.17-3.49,0-6.85,3.02-6.85,7.22s3.36,7.22,6.91,7.22c3.08,0,5.71-2.06,6.02-5.5h-4.35c-.55,0-.99-.42-.99-.94s.44-.94.99-.94h5.37c.81,0,1.17.55,1.15,1.3Z"/>
    <path class="cls-1" d="m525.71,401.88c.52,0,.99.42.99.96s-.47.99-.99.99h-9.59c-.7,0-1.2-.5-1.2-1.2v-15.85c0-.7.5-1.2,1.2-1.2h9.33c.52,0,.99.44.99.96,0,.57-.47.99-.99.99h-8.31v6.18h5.86c.52,0,.96.44.96.94,0,.52-.44.94-.96.94h-5.86v6.28h8.57Z"/>
    <path class="cls-1" d="m546.19,386.66v16.24c0,.68-.5,1.04-1.02,1.04-.47,0-.81-.21-1.15-.65l-10.16-13.71v13.21c0,.6-.52,1.15-1.12,1.15s-1.12-.55-1.12-1.15v-16.24c0-.68.5-1.04,1.02-1.04.47,0,.81.21,1.15.65l10.16,13.71v-13.21c0-.6.52-1.15,1.12-1.15s1.12.55,1.12,1.15Z"/>
    <path class="cls-1" d="m564.15,386.55c0,.57-.47.99-.99.99h-4.48v15.25c0,.62-.5,1.17-1.09,1.17s-1.12-.55-1.12-1.17v-15.25h-4.51c-.52,0-.96-.42-.96-.99,0-.52.44-.96.96-.96h11.21c.52,0,.99.44.99.96Z"/>
    <path class="cls-1" d="m579.73,401.88c.52,0,.99.42.99.96s-.47.99-.99.99h-9.59c-.7,0-1.2-.5-1.2-1.2v-15.85c0-.7.5-1.2,1.2-1.2h9.33c.52,0,.99.44.99.96,0,.57-.47.99-.99.99h-8.31v6.18h5.86c.52,0,.96.44.96.94,0,.52-.44.94-.96.94h-5.86v6.28h8.57Z"/>
    <path class="cls-1" d="m596.28,387.96c.31.44.47.73.47,1.07,0,.5-.37.89-.94.89-.44,0-.76-.23-.99-.55-.76-1.12-1.72-1.98-3.52-1.98-2.06,0-3.39,1.04-3.39,2.71,0,1.41.96,2.32,2.76,3.02l1.49.57c3.36,1.28,5.42,2.5,5.42,5.24,0,3.34-3.28,5.08-6.28,5.08-2.34,0-4.72-1.07-5.81-3.08-.13-.24-.36-.57-.36-.96,0-.52.34-.99.94-.99.52,0,.86.31,1.09.68.86,1.56,2.35,2.35,4.14,2.35,1.93,0,4.04-.86,4.04-3.08,0-1.9-1.51-2.55-3.54-3.34l-1.64-.65c-2.58-.99-4.48-2.4-4.48-4.85,0-2.84,2.5-4.69,5.58-4.69,2.48,0,4.14,1.2,5.03,2.55Z"/>
  </g>
</svg>