<?xml version="1.0" encoding="UTF-8"?>
<svg id="Capa_1" data-name="Capa 1" xmlns="http://www.w3.org/2000/svg" viewBox="0 0 841.89 512.44">
  <defs>
    <style>
      .cls-1 {
        fill: #00476a;
      }
    </style>
  </defs>
  <path class="cls-1" d="m135.23,230.64c-4.49-4.61-11.86-4.72-16.48-.23-4.61,4.49-4.72,11.86-.23,16.48l17.87,18.37-16.26,17.33c-4.4,4.69-4.17,12.06.52,16.47,2.25,2.11,5.11,3.16,7.97,3.16,3.11,0,6.2-1.23,8.5-3.68l23.88-25.44c4.26-4.54,4.2-11.63-.14-16.1l-25.63-26.35Z"/>
  <path class="cls-1" d="m219.15,264.84c0-.19,0-.38-.01-.57,0-.17-.03-.34-.05-.51-.02-.21-.04-.41-.07-.61-.02-.16-.06-.31-.09-.47-.04-.21-.08-.42-.13-.63-.04-.15-.09-.31-.14-.46-.06-.21-.12-.41-.19-.61-.06-.16-.13-.32-.2-.48-.08-.19-.15-.37-.24-.56-.09-.18-.19-.36-.28-.54-.08-.16-.16-.31-.25-.46-.12-.2-.26-.39-.39-.59-.09-.12-.16-.25-.25-.37-.15-.2-.31-.38-.47-.57-.09-.1-.16-.21-.25-.31l-49.9-54.91c-4.33-4.76-11.7-5.11-16.46-.79-4.76,4.33-5.11,11.7-.79,16.46l42.91,47.21-19,21.66c-4.24,4.84-3.76,12.2,1.08,16.44,2.21,1.94,4.95,2.89,7.68,2.89,3.24,0,6.46-1.34,8.76-3.97l25.77-29.38s0,0,0,0l.08-.09c.08-.09.15-.2.23-.29.16-.2.33-.39.47-.6.08-.12.16-.24.24-.36.13-.2.27-.4.39-.61.09-.15.16-.3.24-.45.1-.19.2-.37.28-.56.08-.18.15-.36.22-.54.07-.17.14-.34.2-.51.07-.2.12-.4.18-.6.05-.16.1-.32.13-.48.05-.2.08-.41.12-.62.03-.16.06-.32.09-.49.03-.2.04-.4.06-.6.01-.17.03-.35.04-.52,0-.19,0-.37,0-.56Z"/>
  <path class="cls-1" d="m280.91,256.66l-8.49-2.37c-5.84-1.67-6.12-4.45-6.12-5.84,0-3.2,2.79-5.43,7.24-5.43,3.06,0,5.85,1.11,8.63,4.04,2.64,2.92,5.43,4.04,8.35,4.04,4.46,0,7.79-2.64,7.79-7.66,0-3.34-1.67-5.43-2.5-6.54-4.59-6.41-13.78-9.89-22.97-9.89-13.09,0-26.45,6.96-26.45,21.57,0,10.02,5.99,17.68,20.18,21.72l7.24,2.23c6.54,1.95,7.1,5.01,7.1,6.4,0,2.79-2.64,5.57-8.77,5.57-3.9,0-7.79-.97-11.97-5.71-1.81-2.09-4.18-4.59-8.21-4.59-5.71,0-7.79,4.31-7.79,7.66,0,4.73,3.48,8.77,4.32,9.6,3.9,4.04,10.86,9.47,23.66,9.47,14.48,0,28.95-7.37,28.95-23.1,0-12.67-9.6-17.95-20.18-21.16Z"/>
  <path class="cls-1" d="m531.71,227.25c-5.43,0-10.16,4.46-10.16,10.02v29.93c0,11.55-5.71,16.57-13.36,16.57-.17,0-.31-.02-.48-.02-7.29-.31-12.66-5.32-12.66-16.5v-29.93c0-5.57-4.74-10.02-10.16-10.02s-10.16,4.46-10.16,10.02v29.93c0,24.22,16.56,33.81,32.98,33.81s34.15-9.63,34.15-33.85v-29.93c0-5.57-4.59-10.02-10.16-10.02Z"/>
  <path class="cls-1" d="m564.24,200.84c-5.57,0-10.16,4.59-10.16,10.16v79.9c0,5.57,4.59,10.02,10.16,10.02s10.16-4.45,10.16-10.02v-79.9c0-5.57-4.59-10.16-10.16-10.16Z"/>
  <path class="cls-1" d="m370.49,227.43c-5.57,0-10.16,4.59-10.16,10.02v.55c-2.37-5.7-9.74-11-19.35-11-15.17,0-33.55,12.25-33.55,37.03s18.24,37.16,33.55,37.16c11,0,17.68-6.12,19.35-10.02,0,5.43,4.59,9.88,10.16,9.88s10.3-4.46,10.3-10.02v-53.59c0-5.43-4.87-10.02-10.3-10.02Zm-18.42,54.52c-.23.12-.46.24-.69.35-.21.1-.43.19-.65.28-.28.12-.57.23-.85.33-.34.12-.68.23-1.03.33-.01,0-.02,0-.03,0-1.6.47-3.28.73-5.02.73-10.41,0-18.85-8.88-18.85-19.84s8.44-19.84,18.85-19.84c1.05,0,2.08.11,3.08.29,2.41.34,4.95,1.27,7.21,2.95,5.15,3.54,8.55,9.65,8.55,16.61,0,7.83-4.32,14.58-10.58,17.81Z"/>
  <path class="cls-1" d="m730.31,227.43c-5.57,0-10.16,4.59-10.16,10.02v.55c-2.37-5.7-9.74-11-19.35-11-15.17,0-33.55,12.25-33.55,37.03s18.24,37.16,33.55,37.16c11,0,17.68-6.12,19.35-10.02,0,5.43,4.59,9.88,10.16,9.88s10.3-4.46,10.3-10.02v-53.59c0-5.43-4.87-10.02-10.3-10.02Zm-27.17,56.55c-10.41,0-18.85-8.88-18.85-19.84s8.44-19.84,18.85-19.84,18.85,8.88,18.85,19.84-8.44,19.84-18.85,19.84Z"/>
  <path class="cls-1" d="m451.63,227.18c-5.57,0-10.16,4.59-10.16,10.02v.55c-2.37-5.7-9.74-11-19.35-11-15.17,0-33.55,12.25-33.55,37.03s18.24,37.16,33.55,37.16c10.72,0,17.26-5.7,19.21-9.74v7.38c0,6.54-5.01,12.53-15.73,12.53-6.26,0-10.72-1.81-13.5-2.23-1.95-.56-3.06-.56-3.9-.56-4.32,0-7.94,3.34-7.94,8.07,0,3.62,2.37,6.82,6.68,8.63,3.06,1.26,10.02,3.48,18.51,3.48,14.75,0,36.19-7.24,36.19-29.93v-5.57c.14-.7.28-55.82.28-55.82,0-5.43-4.87-10.02-10.3-10.02Zm-27.78,56.8c-10.41,0-18.85-8.88-18.85-19.84s8.44-19.84,18.85-19.84,18.85,8.88,18.85,19.84-8.44,19.84-18.85,19.84Z"/>
  <path class="cls-1" d="m627.44,227.01c-9.61,0-16.98,5.29-19.35,11v-.55c0-5.43-4.59-10.02-10.16-10.02s-10.3,4.59-10.3,10.02v80.18c0,5.57,4.59,10.16,10.16,10.16s10.44-4.59,10.44-10.16v-26.17c1.95,4.04,8.49,9.74,19.21,9.74,15.31,0,33.54-11.83,33.54-37.16s-18.37-37.03-33.54-37.03Zm-2.31,56.97c-10.41,0-18.85-8.88-18.85-19.84s8.44-19.84,18.85-19.84,18.85,8.88,18.85,19.84-8.44,19.84-18.85,19.84Z"/>
</svg>