<?xml version="1.0" encoding="UTF-8"?>
<svg id="Capa_1" data-name="Capa 1" xmlns="http://www.w3.org/2000/svg" viewBox="0 0 841.89 512.44">
  <defs>
    <style>
      .cls-1 {
        fill: #00476a;
      }

      .cls-2 {
        fill: #fdc53a;
      }

      .cls-3, .cls-4 {
        fill: #f1840d;
      }

      .cls-5, .cls-6 {
        fill: #61a032;
      }

      .cls-7 {
        letter-spacing: .1em;
      }

      .cls-8, .cls-9 {
        letter-spacing: .11em;
      }

      .cls-10 {
        letter-spacing: .1em;
      }

      .cls-9 {
        fill: #fdc43b;
      }

      .cls-9, .cls-11, .cls-4, .cls-6 {
        font-family: VisbyRoundCF-DemiBold, 'Visby Round CF';
        font-size: 17.3px;
        font-weight: 300;
      }

      .cls-11 {
        fill: #f39aa0;
      }

      .cls-12 {
        letter-spacing: .08em;
      }
    </style>
  </defs>
  <g>
    <g>
      <g>
        <path class="cls-3" d="m96.9,192.28c-1.14,0-2.28-.42-3.18-1.26-1.87-1.76-1.96-4.7-.21-6.57l6.49-6.91-7.13-7.33c-1.79-1.84-1.75-4.78.09-6.57,1.84-1.79,4.78-1.75,6.57.09l10.23,10.51c1.73,1.78,1.76,4.61.06,6.42l-9.53,10.15c-.91.97-2.15,1.47-3.39,1.47Z"/>
        <g>
          <path class="cls-2" d="m128.37,182.06c-1.26,0-2.52-.51-3.44-1.52l-19.91-21.91c-1.73-1.9-1.59-4.84.31-6.57,1.9-1.73,4.84-1.59,6.57.31l19.91,21.91c1.73,1.9,1.59,4.84-.31,6.57-.89.81-2.01,1.21-3.13,1.21Z"/>
          <path class="cls-5" d="m118.05,193.82c-1.09,0-2.18-.38-3.06-1.15-1.93-1.69-2.12-4.63-.43-6.56l10.32-11.76c1.69-1.93,4.63-2.12,6.56-.43,1.93,1.69,2.12,4.63.43,6.56l-10.32,11.76c-.92,1.05-2.2,1.58-3.5,1.58Z"/>
        </g>
      </g>
      <g>
        <path class="cls-1" d="m163.6,166.22c.33.44,1,1.28,1,2.61,0,2-1.33,3.05-3.11,3.05-1.17,0-2.28-.44-3.33-1.61-1.11-1.17-2.22-1.61-3.44-1.61-1.78,0-2.89.89-2.89,2.17,0,.56.11,1.67,2.44,2.33l3.39.94c4.22,1.28,8.05,3.39,8.05,8.44,0,6.28-5.78,9.22-11.55,9.22-5.11,0-7.88-2.16-9.44-3.78-.33-.33-1.72-1.94-1.72-3.83,0-1.33.83-3.05,3.11-3.05,1.61,0,2.55,1,3.28,1.83,1.67,1.89,3.22,2.28,4.78,2.28,2.44,0,3.5-1.11,3.5-2.22,0-.56-.22-1.78-2.83-2.55l-2.89-.89c-5.66-1.61-8.05-4.67-8.05-8.66,0-5.83,5.33-8.61,10.55-8.61,3.67,0,7.33,1.39,9.16,3.94Z"/>
        <path class="cls-1" d="m257.72,162.37c-2.17,0-4.05,1.78-4.05,4v11.94c0,4.61-2.28,6.61-5.33,6.61-.07,0-.12,0-.19,0-2.91-.12-5.05-2.12-5.05-6.59v-11.94c0-2.22-1.89-4-4.06-4s-4.05,1.78-4.05,4v11.94c0,9.66,6.61,13.49,13.16,13.49s13.63-3.84,13.63-13.5v-11.94c0-2.22-1.83-4-4.05-4Z"/>
        <path class="cls-1" d="m270.7,191.77c-2.22,0-4.05-1.78-4.05-4v-31.88c0-2.22,1.83-4.06,4.05-4.06s4.06,1.83,4.06,4.06v31.88c0,2.22-1.83,4-4.06,4Z"/>
        <path class="cls-1" d="m193.4,162.45c-2.22,0-4.05,1.83-4.05,4v.22c-.94-2.28-3.89-4.39-7.72-4.39-6.05,0-13.38,4.89-13.38,14.77s7.28,14.83,13.38,14.83c4.39,0,7.05-2.44,7.72-4,0,2.16,1.83,3.94,4.05,3.94s4.11-1.78,4.11-4v-21.38c0-2.17-1.94-4-4.11-4Zm-7.35,21.75c-.09.05-.18.1-.28.14-.09.04-.17.07-.26.11-.11.05-.23.09-.34.13-.13.05-.27.09-.41.13,0,0,0,0-.01,0-.64.19-1.31.29-2,.29-4.15,0-7.52-3.54-7.52-7.92s3.37-7.92,7.52-7.92c.42,0,.83.05,1.23.12.96.14,1.97.51,2.88,1.18,2.05,1.41,3.41,3.85,3.41,6.63,0,3.12-1.72,5.82-4.22,7.11Z"/>
        <path class="cls-1" d="m336.96,162.45c-2.22,0-4.05,1.83-4.05,4v.22c-.94-2.28-3.89-4.39-7.72-4.39-6.05,0-13.38,4.89-13.38,14.77s7.28,14.83,13.38,14.83c4.39,0,7.05-2.44,7.72-4,0,2.16,1.83,3.94,4.05,3.94s4.11-1.78,4.11-4v-21.38c0-2.17-1.94-4-4.11-4Zm-10.84,22.56c-4.15,0-7.52-3.54-7.52-7.92s3.37-7.92,7.52-7.92,7.52,3.54,7.52,7.92-3.37,7.92-7.52,7.92Z"/>
        <path class="cls-1" d="m225.77,162.34c-2.22,0-4.06,1.83-4.06,4v.22c-.94-2.28-3.89-4.39-7.72-4.39-6.05,0-13.38,4.89-13.38,14.77s7.28,14.83,13.38,14.83c4.28,0,6.89-2.28,7.66-3.89v2.94c0,2.61-2,5-6.28,5-2.5,0-4.28-.72-5.39-.89-.78-.22-1.22-.22-1.55-.22-1.72,0-3.17,1.33-3.17,3.22,0,1.44.94,2.72,2.67,3.44,1.22.5,4,1.39,7.39,1.39,5.89,0,14.44-2.89,14.44-11.94v-2.22c.01-.5.11-22.27.11-22.27,0-2.17-1.94-4-4.11-4Zm-11.08,22.66c-4.15,0-7.52-3.54-7.52-7.92s3.37-7.92,7.52-7.92,7.52,3.54,7.52,7.92-3.37,7.92-7.52,7.92Z"/>
        <path class="cls-1" d="m295.91,162.28c-3.83,0-6.78,2.11-7.72,4.39v-.22c0-2.17-1.83-4-4.05-4s-4.11,1.83-4.11,4v31.99c0,2.22,1.83,4.05,4.05,4.05s4.17-1.83,4.17-4.05v-10.44c.78,1.61,3.39,3.89,7.66,3.89,6.11,0,13.38-4.72,13.38-14.83s-7.33-14.77-13.38-14.77Zm-.92,22.73c-4.15,0-7.52-3.54-7.52-7.92s3.37-7.92,7.52-7.92,7.52,3.54,7.52,7.92-3.37,7.92-7.52,7.92Z"/>
      </g>
    </g>
    <text class="cls-4" transform="translate(247.45 220.93)"><tspan class="cls-8" x="0" y="0">m</tspan><tspan class="cls-12" x="18.63" y="0">o</tspan><tspan class="cls-8" x="30.48" y="0">vilidad</tspan></text>
  </g>
  <g>
    <g>
      <g>
        <path class="cls-3" d="m96.9,331.32c-1.14,0-2.28-.42-3.18-1.26-1.87-1.76-1.96-4.7-.21-6.57l6.49-6.91-7.13-7.33c-1.79-1.84-1.75-4.78.09-6.57,1.84-1.79,4.78-1.75,6.57.09l10.23,10.51c1.73,1.78,1.76,4.61.06,6.42l-9.53,10.15c-.91.97-2.15,1.47-3.39,1.47Z"/>
        <g>
          <path class="cls-2" d="m128.37,321.1c-1.26,0-2.52-.51-3.44-1.52l-19.91-21.91c-1.73-1.9-1.59-4.84.31-6.57,1.9-1.73,4.84-1.59,6.57.31l19.91,21.91c1.73,1.9,1.59,4.84-.31,6.57-.89.81-2.01,1.21-3.13,1.21Z"/>
          <path class="cls-5" d="m118.05,332.86c-1.09,0-2.18-.38-3.06-1.15-1.93-1.69-2.12-4.63-.43-6.56l10.32-11.76c1.69-1.93,4.63-2.12,6.56-.43,1.93,1.69,2.12,4.63.43,6.56l-10.32,11.76c-.92,1.05-2.2,1.58-3.5,1.58Z"/>
        </g>
      </g>
      <g>
        <path class="cls-1" d="m163.6,305.26c.33.44,1,1.28,1,2.61,0,2-1.33,3.05-3.11,3.05-1.17,0-2.28-.44-3.33-1.61-1.11-1.17-2.22-1.61-3.44-1.61-1.78,0-2.89.89-2.89,2.17,0,.56.11,1.67,2.44,2.33l3.39.94c4.22,1.28,8.05,3.39,8.05,8.44,0,6.28-5.78,9.22-11.55,9.22-5.11,0-7.88-2.16-9.44-3.78-.33-.33-1.72-1.94-1.72-3.83,0-1.33.83-3.05,3.11-3.05,1.61,0,2.55,1,3.28,1.83,1.67,1.89,3.22,2.28,4.78,2.28,2.44,0,3.5-1.11,3.5-2.22,0-.56-.22-1.78-2.83-2.55l-2.89-.89c-5.66-1.61-8.05-4.67-8.05-8.66,0-5.83,5.33-8.61,10.55-8.61,3.67,0,7.33,1.39,9.16,3.94Z"/>
        <path class="cls-1" d="m257.72,301.41c-2.17,0-4.05,1.78-4.05,4v11.94c0,4.61-2.28,6.61-5.33,6.61-.07,0-.12,0-.19,0-2.91-.12-5.05-2.12-5.05-6.59v-11.94c0-2.22-1.89-4-4.06-4s-4.05,1.78-4.05,4v11.94c0,9.66,6.61,13.49,13.16,13.49s13.63-3.84,13.63-13.5v-11.94c0-2.22-1.83-4-4.05-4Z"/>
        <path class="cls-1" d="m270.7,330.81c-2.22,0-4.05-1.78-4.05-4v-31.88c0-2.22,1.83-4.06,4.05-4.06s4.06,1.83,4.06,4.06v31.88c0,2.22-1.83,4-4.06,4Z"/>
        <path class="cls-1" d="m193.4,301.49c-2.22,0-4.05,1.83-4.05,4v.22c-.94-2.28-3.89-4.39-7.72-4.39-6.05,0-13.38,4.89-13.38,14.77s7.28,14.83,13.38,14.83c4.39,0,7.05-2.44,7.72-4,0,2.16,1.83,3.94,4.05,3.94s4.11-1.78,4.11-4v-21.38c0-2.17-1.94-4-4.11-4Zm-7.35,21.75c-.09.05-.18.1-.28.14-.09.04-.17.07-.26.11-.11.05-.23.09-.34.13-.13.05-.27.09-.41.13,0,0,0,0-.01,0-.64.19-1.31.29-2,.29-4.15,0-7.52-3.54-7.52-7.92s3.37-7.92,7.52-7.92c.42,0,.83.05,1.23.12.96.14,1.97.51,2.88,1.18,2.05,1.41,3.41,3.85,3.41,6.63,0,3.12-1.72,5.82-4.22,7.11Z"/>
        <path class="cls-1" d="m336.96,301.49c-2.22,0-4.05,1.83-4.05,4v.22c-.94-2.28-3.89-4.39-7.72-4.39-6.05,0-13.38,4.89-13.38,14.77s7.28,14.83,13.38,14.83c4.39,0,7.05-2.44,7.72-4,0,2.16,1.83,3.94,4.05,3.94s4.11-1.78,4.11-4v-21.38c0-2.17-1.94-4-4.11-4Zm-10.84,22.56c-4.15,0-7.52-3.54-7.52-7.92s3.37-7.92,7.52-7.92,7.52,3.54,7.52,7.92-3.37,7.92-7.52,7.92Z"/>
        <path class="cls-1" d="m225.77,301.39c-2.22,0-4.06,1.83-4.06,4v.22c-.94-2.28-3.89-4.39-7.72-4.39-6.05,0-13.38,4.89-13.38,14.77s7.28,14.83,13.38,14.83c4.28,0,6.89-2.28,7.66-3.89v2.94c0,2.61-2,5-6.28,5-2.5,0-4.28-.72-5.39-.89-.78-.22-1.22-.22-1.55-.22-1.72,0-3.17,1.33-3.17,3.22,0,1.44.94,2.72,2.67,3.44,1.22.5,4,1.39,7.39,1.39,5.89,0,14.44-2.89,14.44-11.94v-2.22c.01-.5.11-22.27.11-22.27,0-2.17-1.94-4-4.11-4Zm-11.08,22.66c-4.15,0-7.52-3.54-7.52-7.92s3.37-7.92,7.52-7.92,7.52,3.54,7.52,7.92-3.37,7.92-7.52,7.92Z"/>
        <path class="cls-1" d="m295.91,301.32c-3.83,0-6.78,2.11-7.72,4.39v-.22c0-2.17-1.83-4-4.05-4s-4.11,1.83-4.11,4v31.99c0,2.22,1.83,4.05,4.05,4.05s4.17-1.83,4.17-4.05v-10.44c.78,1.61,3.39,3.89,7.66,3.89,6.11,0,13.38-4.72,13.38-14.83s-7.33-14.77-13.38-14.77Zm-.92,22.73c-4.15,0-7.52-3.54-7.52-7.92s3.37-7.92,7.52-7.92,7.52,3.54,7.52,7.92-3.37,7.92-7.52,7.92Z"/>
      </g>
    </g>
    <text class="cls-6" transform="translate(206.36 359.74)"><tspan class="cls-10" x="0" y="0">soste</tspan><tspan class="cls-8" x="51.47" y="0">nibilidad</tspan></text>
  </g>
  <g>
    <g>
      <g>
        <path class="cls-3" d="m486.23,192.28c-1.14,0-2.28-.42-3.18-1.26-1.87-1.76-1.96-4.7-.21-6.57l6.49-6.91-7.13-7.33c-1.79-1.84-1.75-4.78.09-6.57,1.84-1.79,4.78-1.75,6.57.09l10.23,10.51c1.73,1.78,1.76,4.61.06,6.42l-9.53,10.15c-.91.97-2.15,1.47-3.39,1.47Z"/>
        <g>
          <path class="cls-2" d="m517.7,182.06c-1.26,0-2.52-.51-3.44-1.52l-19.91-21.91c-1.73-1.9-1.59-4.84.31-6.57,1.9-1.73,4.84-1.59,6.57.31l19.91,21.91c1.73,1.9,1.59,4.84-.31,6.57-.89.81-2.01,1.21-3.13,1.21Z"/>
          <path class="cls-5" d="m507.38,193.82c-1.09,0-2.18-.38-3.06-1.15-1.93-1.69-2.12-4.63-.43-6.56l10.32-11.76c1.69-1.93,4.63-2.12,6.56-.43,1.93,1.69,2.12,4.63.43,6.56l-10.32,11.76c-.92,1.05-2.2,1.58-3.5,1.58Z"/>
        </g>
      </g>
      <g>
        <path class="cls-1" d="m552.93,166.22c.33.44,1,1.28,1,2.61,0,2-1.33,3.05-3.11,3.05-1.17,0-2.28-.44-3.33-1.61-1.11-1.17-2.22-1.61-3.44-1.61-1.78,0-2.89.89-2.89,2.17,0,.56.11,1.67,2.44,2.33l3.39.94c4.22,1.28,8.05,3.39,8.05,8.44,0,6.28-5.78,9.22-11.55,9.22-5.11,0-7.88-2.16-9.44-3.78-.33-.33-1.72-1.94-1.72-3.83,0-1.33.83-3.05,3.11-3.05,1.61,0,2.55,1,3.28,1.83,1.67,1.89,3.22,2.28,4.78,2.28,2.44,0,3.5-1.11,3.5-2.22,0-.56-.22-1.78-2.83-2.55l-2.89-.89c-5.66-1.61-8.05-4.67-8.05-8.66,0-5.83,5.33-8.61,10.55-8.61,3.67,0,7.33,1.39,9.16,3.94Z"/>
        <path class="cls-1" d="m647.05,162.37c-2.17,0-4.05,1.78-4.05,4v11.94c0,4.61-2.28,6.61-5.33,6.61-.07,0-.12,0-.19,0-2.91-.12-5.05-2.12-5.05-6.59v-11.94c0-2.22-1.89-4-4.06-4s-4.05,1.78-4.05,4v11.94c0,9.66,6.61,13.49,13.16,13.49s13.63-3.84,13.63-13.5v-11.94c0-2.22-1.83-4-4.05-4Z"/>
        <path class="cls-1" d="m660.03,191.77c-2.22,0-4.05-1.78-4.05-4v-31.88c0-2.22,1.83-4.06,4.05-4.06s4.06,1.83,4.06,4.06v31.88c0,2.22-1.83,4-4.06,4Z"/>
        <path class="cls-1" d="m582.73,162.45c-2.22,0-4.05,1.83-4.05,4v.22c-.94-2.28-3.89-4.39-7.72-4.39-6.05,0-13.38,4.89-13.38,14.77s7.28,14.83,13.38,14.83c4.39,0,7.05-2.44,7.72-4,0,2.16,1.83,3.94,4.05,3.94s4.11-1.78,4.11-4v-21.38c0-2.17-1.94-4-4.11-4Zm-7.35,21.75c-.09.05-.18.1-.28.14-.09.04-.17.07-.26.11-.11.05-.23.09-.34.13-.13.05-.27.09-.41.13,0,0,0,0-.01,0-.64.19-1.31.29-2,.29-4.15,0-7.52-3.54-7.52-7.92s3.37-7.92,7.52-7.92c.42,0,.83.05,1.23.12.96.14,1.97.51,2.88,1.18,2.05,1.41,3.41,3.85,3.41,6.63,0,3.12-1.72,5.82-4.22,7.11Z"/>
        <path class="cls-1" d="m726.29,162.45c-2.22,0-4.05,1.83-4.05,4v.22c-.94-2.28-3.89-4.39-7.72-4.39-6.05,0-13.38,4.89-13.38,14.77s7.28,14.83,13.38,14.83c4.39,0,7.05-2.44,7.72-4,0,2.16,1.83,3.94,4.05,3.94s4.11-1.78,4.11-4v-21.38c0-2.17-1.94-4-4.11-4Zm-10.84,22.56c-4.15,0-7.52-3.54-7.52-7.92s3.37-7.92,7.52-7.92,7.52,3.54,7.52,7.92-3.37,7.92-7.52,7.92Z"/>
        <path class="cls-1" d="m615.1,162.34c-2.22,0-4.06,1.83-4.06,4v.22c-.94-2.28-3.89-4.39-7.72-4.39-6.05,0-13.38,4.89-13.38,14.77s7.28,14.83,13.38,14.83c4.28,0,6.89-2.28,7.66-3.89v2.94c0,2.61-2,5-6.28,5-2.5,0-4.28-.72-5.39-.89-.78-.22-1.22-.22-1.55-.22-1.72,0-3.17,1.33-3.17,3.22,0,1.44.94,2.72,2.67,3.44,1.22.5,4,1.39,7.39,1.39,5.89,0,14.44-2.89,14.44-11.94v-2.22c.01-.5.11-22.27.11-22.27,0-2.17-1.94-4-4.11-4Zm-11.08,22.66c-4.15,0-7.52-3.54-7.52-7.92s3.37-7.92,7.52-7.92,7.52,3.54,7.52,7.92-3.37,7.92-7.52,7.92Z"/>
        <path class="cls-1" d="m685.24,162.28c-3.83,0-6.78,2.11-7.72,4.39v-.22c0-2.17-1.83-4-4.05-4s-4.11,1.83-4.11,4v31.99c0,2.22,1.83,4.05,4.05,4.05s4.17-1.83,4.17-4.05v-10.44c.78,1.61,3.39,3.89,7.66,3.89,6.11,0,13.38-4.72,13.38-14.83s-7.33-14.77-13.38-14.77Zm-.92,22.73c-4.15,0-7.52-3.54-7.52-7.92s3.37-7.92,7.52-7.92,7.52,3.54,7.52,7.92-3.37,7.92-7.52,7.92Z"/>
      </g>
    </g>
    <text class="cls-9" transform="translate(704.91 220.93)"><tspan x="0" y="0">i+d</tspan></text>
  </g>
  <g>
    <g>
      <g>
        <path class="cls-3" d="m486.23,331.32c-1.14,0-2.28-.42-3.18-1.26-1.87-1.76-1.96-4.7-.21-6.57l6.49-6.91-7.13-7.33c-1.79-1.84-1.75-4.78.09-6.57,1.84-1.79,4.78-1.75,6.57.09l10.23,10.51c1.73,1.78,1.76,4.61.06,6.42l-9.53,10.15c-.91.97-2.15,1.47-3.39,1.47Z"/>
        <g>
          <path class="cls-2" d="m517.7,321.1c-1.26,0-2.52-.51-3.44-1.52l-19.91-21.91c-1.73-1.9-1.59-4.84.31-6.57,1.9-1.73,4.84-1.59,6.57.31l19.91,21.91c1.73,1.9,1.59,4.84-.31,6.57-.89.81-2.01,1.21-3.13,1.21Z"/>
          <path class="cls-5" d="m507.38,332.86c-1.09,0-2.18-.38-3.06-1.15-1.93-1.69-2.12-4.63-.43-6.56l10.32-11.76c1.69-1.93,4.63-2.12,6.56-.43,1.93,1.69,2.12,4.63.43,6.56l-10.32,11.76c-.92,1.05-2.2,1.58-3.5,1.58Z"/>
        </g>
      </g>
      <g>
        <path class="cls-1" d="m552.93,305.26c.33.44,1,1.28,1,2.61,0,2-1.33,3.05-3.11,3.05-1.17,0-2.28-.44-3.33-1.61-1.11-1.17-2.22-1.61-3.44-1.61-1.78,0-2.89.89-2.89,2.17,0,.56.11,1.67,2.44,2.33l3.39.94c4.22,1.28,8.05,3.39,8.05,8.44,0,6.28-5.78,9.22-11.55,9.22-5.11,0-7.88-2.16-9.44-3.78-.33-.33-1.72-1.94-1.72-3.83,0-1.33.83-3.05,3.11-3.05,1.61,0,2.55,1,3.28,1.83,1.67,1.89,3.22,2.28,4.78,2.28,2.44,0,3.5-1.11,3.5-2.22,0-.56-.22-1.78-2.83-2.55l-2.89-.89c-5.66-1.61-8.05-4.67-8.05-8.66,0-5.83,5.33-8.61,10.55-8.61,3.67,0,7.33,1.39,9.16,3.94Z"/>
        <path class="cls-1" d="m647.05,301.41c-2.17,0-4.05,1.78-4.05,4v11.94c0,4.61-2.28,6.61-5.33,6.61-.07,0-.12,0-.19,0-2.91-.12-5.05-2.12-5.05-6.59v-11.94c0-2.22-1.89-4-4.06-4s-4.05,1.78-4.05,4v11.94c0,9.66,6.61,13.49,13.16,13.49s13.63-3.84,13.63-13.5v-11.94c0-2.22-1.83-4-4.05-4Z"/>
        <path class="cls-1" d="m660.03,330.81c-2.22,0-4.05-1.78-4.05-4v-31.88c0-2.22,1.83-4.06,4.05-4.06s4.06,1.83,4.06,4.06v31.88c0,2.22-1.83,4-4.06,4Z"/>
        <path class="cls-1" d="m582.73,301.49c-2.22,0-4.05,1.83-4.05,4v.22c-.94-2.28-3.89-4.39-7.72-4.39-6.05,0-13.38,4.89-13.38,14.77s7.28,14.83,13.38,14.83c4.39,0,7.05-2.44,7.72-4,0,2.16,1.83,3.94,4.05,3.94s4.11-1.78,4.11-4v-21.38c0-2.17-1.94-4-4.11-4Zm-7.35,21.75c-.09.05-.18.1-.28.14-.09.04-.17.07-.26.11-.11.05-.23.09-.34.13-.13.05-.27.09-.41.13,0,0,0,0-.01,0-.64.19-1.31.29-2,.29-4.15,0-7.52-3.54-7.52-7.92s3.37-7.92,7.52-7.92c.42,0,.83.05,1.23.12.96.14,1.97.51,2.88,1.18,2.05,1.41,3.41,3.85,3.41,6.63,0,3.12-1.72,5.82-4.22,7.11Z"/>
        <path class="cls-1" d="m726.29,301.49c-2.22,0-4.05,1.83-4.05,4v.22c-.94-2.28-3.89-4.39-7.72-4.39-6.05,0-13.38,4.89-13.38,14.77s7.28,14.83,13.38,14.83c4.39,0,7.05-2.44,7.72-4,0,2.16,1.83,3.94,4.05,3.94s4.11-1.78,4.11-4v-21.38c0-2.17-1.94-4-4.11-4Zm-10.84,22.56c-4.15,0-7.52-3.54-7.52-7.92s3.37-7.92,7.52-7.92,7.52,3.54,7.52,7.92-3.37,7.92-7.52,7.92Z"/>
        <path class="cls-1" d="m615.1,301.39c-2.22,0-4.06,1.83-4.06,4v.22c-.94-2.28-3.89-4.39-7.72-4.39-6.05,0-13.38,4.89-13.38,14.77s7.28,14.83,13.38,14.83c4.28,0,6.89-2.28,7.66-3.89v2.94c0,2.61-2,5-6.28,5-2.5,0-4.28-.72-5.39-.89-.78-.22-1.22-.22-1.55-.22-1.72,0-3.17,1.33-3.17,3.22,0,1.44.94,2.72,2.67,3.44,1.22.5,4,1.39,7.39,1.39,5.89,0,14.44-2.89,14.44-11.94v-2.22c.01-.5.11-22.27.11-22.27,0-2.17-1.94-4-4.11-4Zm-11.08,22.66c-4.15,0-7.52-3.54-7.52-7.92s3.37-7.92,7.52-7.92,7.52,3.54,7.52,7.92-3.37,7.92-7.52,7.92Z"/>
        <path class="cls-1" d="m685.24,301.32c-3.83,0-6.78,2.11-7.72,4.39v-.22c0-2.17-1.83-4-4.05-4s-4.11,1.83-4.11,4v31.99c0,2.22,1.83,4.05,4.05,4.05s4.17-1.83,4.17-4.05v-10.44c.78,1.61,3.39,3.89,7.66,3.89,6.11,0,13.38-4.72,13.38-14.83s-7.33-14.77-13.38-14.77Zm-.92,22.73c-4.15,0-7.52-3.54-7.52-7.92s3.37-7.92,7.52-7.92,7.52,3.54,7.52,7.92-3.37,7.92-7.52,7.92Z"/>
      </g>
    </g>
    <text class="cls-11" transform="translate(675.84 359.74)"><tspan class="cls-10" x="0" y="0">so</tspan><tspan class="cls-8" x="21.98" y="0">ci</tspan><tspan class="cls-7" x="38.99" y="0">a</tspan><tspan class="cls-8" x="51.41" y="0">l</tspan></text>
  </g>
</svg>