<?xml version="1.0" encoding="UTF-8"?>
<svg id="Capa_1" data-name="Capa 1" xmlns="http://www.w3.org/2000/svg" viewBox="0 0 841.89 512.44">
  <defs>
    <style>
      .cls-1 {
        fill: #fff;
      }

      .cls-2 {
        fill: #fdc53a;
      }

      .cls-3 {
        fill: #f1840d;
      }

      .cls-4 {
        fill: #61a032;
      }
    </style>
  </defs>
  <g>
    <path class="cls-3" d="m128.62,302.21c-2.86,0-5.72-1.05-7.97-3.16-4.69-4.4-4.92-11.78-.52-16.47l16.26-17.33-17.87-18.37c-4.49-4.61-4.38-11.99.23-16.48,4.61-4.49,11.99-4.38,16.48.23l25.63,26.35c4.34,4.47,4.41,11.56.14,16.1l-23.88,25.44c-2.29,2.44-5.39,3.68-8.5,3.68Z"/>
    <g>
      <path class="cls-2" d="m207.51,276.59c-3.17,0-6.33-1.28-8.63-3.82l-49.9-54.91c-4.33-4.76-3.98-12.13.79-16.46,4.76-4.33,12.13-3.98,16.46.79l49.9,54.91c4.33,4.76,3.98,12.13-.79,16.46-2.23,2.03-5.04,3.03-7.83,3.03Z"/>
      <path class="cls-4" d="m181.65,306.07c-2.73,0-5.47-.95-7.68-2.89-4.84-4.24-5.32-11.6-1.08-16.44l25.86-29.48c4.24-4.84,11.61-5.32,16.44-1.08,4.84,4.24,5.32,11.6,1.08,16.44l-25.86,29.48c-2.3,2.63-5.53,3.97-8.76,3.97Z"/>
    </g>
  </g>
  <g>
    <path class="cls-1" d="m295.81,236.9c.84,1.11,2.5,3.2,2.5,6.54,0,5.01-3.34,7.66-7.79,7.66-2.92,0-5.71-1.11-8.35-4.04-2.78-2.92-5.57-4.04-8.63-4.04-4.45,0-7.24,2.23-7.24,5.43,0,1.39.28,4.17,6.12,5.84l8.49,2.37c10.58,3.2,20.18,8.49,20.18,21.16,0,15.73-14.47,23.1-28.95,23.1-12.8,0-19.76-5.43-23.66-9.47-.84-.83-4.31-4.87-4.31-9.6,0-3.34,2.09-7.66,7.79-7.66,4.04,0,6.4,2.51,8.21,4.59,4.17,4.73,8.07,5.71,11.97,5.71,6.13,0,8.77-2.78,8.77-5.57,0-1.39-.56-4.46-7.1-6.4l-7.24-2.23c-14.2-4.04-20.18-11.69-20.18-21.72,0-14.62,13.36-21.57,26.45-21.57,9.19,0,18.37,3.48,22.97,9.89Z"/>
    <path class="cls-1" d="m531.71,227.25c-5.43,0-10.16,4.46-10.16,10.02v29.93c0,11.55-5.71,16.57-13.36,16.57-.17,0-.31-.02-.48-.02-7.29-.31-12.66-5.32-12.66-16.51v-29.93c0-5.57-4.74-10.02-10.16-10.02s-10.16,4.46-10.16,10.02v29.93c0,24.22,16.56,33.81,32.98,33.81s34.15-9.63,34.15-33.85v-29.93c0-5.57-4.59-10.02-10.16-10.02Z"/>
    <path class="cls-1" d="m564.24,300.92c-5.57,0-10.16-4.45-10.16-10.02v-79.9c0-5.57,4.59-10.16,10.16-10.16s10.16,4.59,10.16,10.16v79.9c0,5.57-4.59,10.02-10.16,10.02Z"/>
    <path class="cls-1" d="m370.49,227.43c-5.57,0-10.16,4.59-10.16,10.02v.55c-2.37-5.7-9.74-11-19.35-11-15.17,0-33.55,12.25-33.55,37.03s18.24,37.16,33.55,37.16c11,0,17.68-6.12,19.35-10.02,0,5.43,4.59,9.88,10.16,9.88s10.3-4.46,10.3-10.02v-53.59c0-5.43-4.87-10.02-10.3-10.02Zm-18.42,54.52c-.23.12-.46.24-.69.35-.21.1-.43.19-.65.28-.28.12-.57.23-.85.33-.34.12-.68.23-1.03.33-.01,0-.02,0-.03,0-1.6.47-3.28.73-5.02.73-10.41,0-18.85-8.88-18.85-19.84s8.44-19.84,18.85-19.84c1.05,0,2.08.11,3.08.29,2.41.34,4.95,1.27,7.21,2.95,5.15,3.54,8.55,9.65,8.55,16.61,0,7.83-4.32,14.58-10.58,17.81Z"/>
    <path class="cls-1" d="m730.31,227.43c-5.57,0-10.16,4.59-10.16,10.02v.55c-2.37-5.7-9.74-11-19.35-11-15.17,0-33.55,12.25-33.55,37.03s18.24,37.16,33.55,37.16c11,0,17.68-6.12,19.35-10.02,0,5.43,4.59,9.88,10.16,9.88s10.3-4.46,10.3-10.02v-53.59c0-5.43-4.87-10.02-10.3-10.02Zm-27.17,56.55c-10.41,0-18.85-8.88-18.85-19.84s8.44-19.84,18.85-19.84,18.85,8.88,18.85,19.84-8.44,19.84-18.85,19.84Z"/>
    <path class="cls-1" d="m451.63,227.18c-5.57,0-10.16,4.59-10.16,10.02v.55c-2.37-5.7-9.74-11-19.35-11-15.17,0-33.55,12.25-33.55,37.03s18.24,37.16,33.55,37.16c10.72,0,17.26-5.7,19.21-9.74v7.38c0,6.54-5.01,12.53-15.73,12.53-6.26,0-10.72-1.81-13.5-2.23-1.95-.56-3.06-.56-3.9-.56-4.31,0-7.94,3.34-7.94,8.07,0,3.62,2.37,6.82,6.68,8.63,3.06,1.26,10.02,3.48,18.51,3.48,14.75,0,36.19-7.24,36.19-29.93v-5.57c.03-1.26.28-55.82.28-55.82,0-5.43-4.87-10.02-10.3-10.02Zm-27.78,56.8c-10.41,0-18.85-8.88-18.85-19.84s8.44-19.84,18.85-19.84,18.85,8.88,18.85,19.84-8.44,19.84-18.85,19.84Z"/>
    <path class="cls-1" d="m627.44,227.01c-9.61,0-16.98,5.29-19.35,11v-.55c0-5.43-4.59-10.02-10.16-10.02s-10.3,4.59-10.3,10.02v80.18c0,5.57,4.59,10.16,10.16,10.16s10.44-4.59,10.44-10.16v-26.17c1.95,4.04,8.49,9.74,19.21,9.74,15.31,0,33.54-11.83,33.54-37.16s-18.37-37.03-33.54-37.03Zm-2.31,56.97c-10.41,0-18.85-8.88-18.85-19.84s8.44-19.84,18.85-19.84,18.85,8.88,18.85,19.84-8.44,19.84-18.85,19.84Z"/>
  </g>
</svg>